<?xml version="1.0" encoding="iso-8859-1"?>
<!-- Uploaded to: SVG Repo, www.svgrepo.com, Generator: SVG Repo Mixer Tools -->
<!DOCTYPE svg PUBLIC "-//W3C//DTD SVG 1.1//EN" "http://www.w3.org/Graphics/SVG/1.1/DTD/svg11.dtd">
<svg fill="#000000" height="800px" width="800px" version="1.1" id="Capa_1" xmlns="http://www.w3.org/2000/svg" xmlns:xlink="http://www.w3.org/1999/xlink" 
	 viewBox="0 0 446.975 446.975" xml:space="preserve">
<g>
	<g>
		<g>
			<path d="M151.791,345.286c-20.016,0-36.299-16.283-36.299-36.299c0-20.016,16.283-36.299,36.299-36.299
				c20.016,0,36.299,16.283,36.299,36.299C188.09,329.002,171.807,345.286,151.791,345.286z M151.791,282.688
				c-14.502,0-26.299,11.798-26.299,26.299c0,14.501,11.797,26.299,26.299,26.299c14.502,0,26.299-11.798,26.299-26.299
				C178.09,294.486,166.293,282.688,151.791,282.688z"/>
		</g>
		<g>
			<path d="M400.525,354.853c-14.471,0-26.242-11.773-26.242-26.242c0-14.469,11.771-26.24,26.242-26.24
				c14.469,0,26.24,11.772,26.24,26.24C426.766,343.081,414.994,354.853,400.525,354.853z M400.525,312.371
				c-8.957,0-16.242,7.285-16.242,16.24c0,8.956,7.285,16.242,16.242,16.242c8.955,0,16.24-7.286,16.24-16.242
				C416.766,319.656,409.48,312.371,400.525,312.371z"/>
		</g>
		<g>
			<g>
				<path d="M258.643,333.612c-2.762,0-5-2.238-5-5V304.38c0-2.761,2.238-5,5-5c2.762,0,5,2.239,5,5v24.232
					C263.643,331.374,261.404,333.612,258.643,333.612z"/>
			</g>
			<g>
				<path d="M285.727,333.612c-2.762,0-5-2.238-5-5V304.38c0-2.761,2.238-5,5-5c2.762,0,5,2.239,5,5v24.232
					C290.727,331.374,288.488,333.612,285.727,333.612z"/>
			</g>
			<g>
				<path d="M312.809,333.612c-2.762,0-5-2.238-5-5V304.38c0-2.761,2.238-5,5-5c2.762,0,5,2.239,5,5v24.232
					C317.809,331.374,315.57,333.612,312.809,333.612z"/>
			</g>
		</g>
		<path d="M400.525,282.162c-7.572,0-14.721,1.833-21.043,5.06l-33.613-21.267c-0.691-0.438-1.48-0.698-2.297-0.761l-50.021-3.766
			v-22.11h13.828c2.762,0,5-2.239,5-5v-6.633c0-27.756-25.414-27.756-43.971-27.756c-18.557,0-43.973,0-43.973,27.756v6.633
			c0,2.761,2.238,5,5,5h13.83v18.325l-49.756-3.745L37.262,73.638c-0.988-1.14-2.379-1.703-3.779-1.704v-0.021H13.51
			C6.061,71.913,0,77.974,0,85.423s6.061,13.511,13.51,13.511h32.445L150.4,219.431L59.85,191.64
			c-1.514-0.466-3.164-0.185-4.439,0.759c-1.275,0.943-2.027,2.435-2.027,4.021v116.269c0,2.762,2.238,5,5,5h27.922
			c4.275,32.334,32.002,57.374,65.486,57.374c18.193,0,34.693-7.394,46.654-19.332h164.402
			c8.443,11.697,22.182,19.332,37.678,19.332c25.611,0,46.449-20.838,46.449-46.451
			C446.975,302.999,426.137,282.162,400.525,282.162z M13.51,88.934c-1.936,0-3.51-1.575-3.51-3.511c0-1.936,1.574-3.511,3.51-3.511
			h17.689l6.088,7.021H13.51z M234.436,227.685c0-15.073,8.902-17.756,33.973-17.756s33.971,2.683,33.971,17.756v1.633h-67.943
			V227.685z M283.551,239.318v21.357l-30.285-2.279v-19.078H283.551z M85.748,307.688H63.383V203.184l99.369,30.496l11.379,13.127
			c-6.982-2.517-14.502-3.895-22.34-3.895C115.791,242.912,86.445,271.854,85.748,307.688z M151.791,365.062
			c-30.922,0-56.076-25.155-56.076-56.075c0-30.92,25.154-56.075,56.076-56.075c30.92,0,56.074,25.155,56.074,56.075
			C207.865,339.907,182.711,365.062,151.791,365.062z M357.355,345.73H206.678c7.061-10.514,11.188-23.154,11.188-36.743
			c0-17.145-6.572-32.776-17.318-44.53l141.031,10.616l28.815,18.23c-9.977,8.525-16.32,21.186-16.32,35.308
			C354.072,334.656,355.246,340.428,357.355,345.73z M400.525,365.062c-20.1,0-36.453-16.353-36.453-36.451
			c0-20.099,16.354-36.449,36.453-36.449c20.098,0,36.449,16.35,36.449,36.449C436.975,348.709,420.623,365.062,400.525,365.062z"/>
	</g>
</g>
</svg>