<svg xmlns="http://www.w3.org/2000/svg" xml:space="preserve" width="800" height="800" viewBox="0 0 512 512"><path d="M128 289.391c-46.032 0-83.478 37.446-83.478 83.478S81.968 456.347 128 456.347s83.478-37.446 83.478-83.478-37.446-83.478-83.478-83.478zm0 133.566c-27.619 0-50.087-22.468-50.087-50.087s22.468-50.087 50.087-50.087c27.619 0 50.087 22.468 50.087 50.087S155.619 422.957 128 422.957zm333.913-66.783c-27.619 0-50.087 22.468-50.087 50.087s22.468 50.087 50.087 50.087c27.619 0 50.087-22.468 50.087-50.087s-22.468-50.087-50.087-50.087zm0 66.783c-9.206 0-16.696-7.49-16.696-16.696s7.49-16.696 16.696-16.696 16.696 7.49 16.696 16.696-7.49 16.696-16.696 16.696zm-47.611-221.669-166.924-50.079c-8.793-2.639-18.149 2.396-20.788 11.191l-5.731 19.086 198.919 59.674 5.718-19.089c2.645-8.829-2.366-18.134-11.194-20.783z"/><path d="M466.707 290.098 139.713 192 76.152 64.88a16.7 16.7 0 0 0-14.935-9.228H16.696C7.479 55.652 0 63.131 0 72.348s7.479 16.696 16.696 16.696h34.206l60.403 120.815v47.476C116.772 256.546 122.318 256 128 256c64.445 0 116.87 52.424 116.87 116.87 0 17.94-4.182 34.881-11.434 50.087h146.682a83.442 83.442 0 0 1-1.682-16.696c-.001-46.032 37.445-83.478 83.477-83.478 5.718 0 11.299.581 16.696 1.682v-18.377a16.697 16.697 0 0 0-11.902-15.99zm-116.098 66.076h-66.783c-9.217 0-16.696-7.479-16.696-16.696s7.479-16.696 16.696-16.696h66.783c9.217 0 16.696 7.479 16.696 16.696s-7.479 16.696-16.696 16.696z"/></svg>