<svg xmlns="http://www.w3.org/2000/svg" xmlns:xlink="http://www.w3.org/1999/xlink" width="500" zoomAndPan="magnify" viewBox="0 0 375 374.999991" height="500" preserveAspectRatio="xMidYMid meet" version="1.0"><defs><clipPath id="489d8c3158"><path d="M 33.3125 31.953125 L 341.5625 31.953125 L 341.5625 343.203125 L 33.3125 343.203125 Z M 33.3125 31.953125 " clip-rule="nonzero"/></clipPath></defs><g clip-path="url(#489d8c3158)"><path fill="#7ed321" d="M 284.375 31.953125 C 276.671875 31.953125 269.269531 33.433594 262.457031 36.398438 L 262.15625 36.398438 L 115.800781 100.390625 C 111.359375 102.464844 109.285156 107.5 111.359375 112.242188 C 112.839844 115.5 116.09375 117.578125 119.648438 117.578125 C 120.835938 117.578125 122.023438 117.277344 123.210938 116.6875 L 231.046875 69.578125 C 228.675781 75.800781 227.496094 82.617188 227.496094 89.726562 C 227.496094 121.722656 253.273438 147.5 284.675781 147.5 C 316.082031 147.5 341.558594 121.722656 341.558594 89.726562 C 341.558594 57.730469 315.78125 31.953125 284.375 31.953125 Z M 284.375 49.730469 C 306.003906 49.730469 323.78125 67.800781 323.78125 89.726562 C 323.78125 111.652344 306.003906 129.722656 284.375 129.722656 C 262.75 129.722656 244.976562 111.652344 244.976562 89.726562 C 244.976562 67.800781 262.75 49.730469 284.375 49.730469 Z M 284.082031 77.582031 C 283.285156 77.582031 282.496094 77.660156 281.710938 77.8125 C 280.929688 77.96875 280.171875 78.199219 279.433594 78.503906 C 278.695312 78.808594 277.996094 79.183594 277.332031 79.628906 C 276.671875 80.070312 276.058594 80.574219 275.492188 81.136719 C 274.929688 81.703125 274.425781 82.316406 273.984375 82.980469 C 273.539062 83.640625 273.164062 84.339844 272.859375 85.078125 C 272.554688 85.816406 272.324219 86.574219 272.167969 87.355469 C 272.011719 88.140625 271.9375 88.929688 271.933594 89.726562 C 271.9375 90.523438 272.011719 91.3125 272.167969 92.097656 C 272.324219 92.878906 272.554688 93.636719 272.859375 94.375 C 273.164062 95.109375 273.539062 95.8125 273.984375 96.472656 C 274.425781 97.136719 274.929688 97.75 275.492188 98.316406 C 276.058594 98.878906 276.671875 99.382812 277.332031 99.824219 C 277.996094 100.269531 278.695312 100.640625 279.433594 100.949219 C 280.171875 101.253906 280.929688 101.484375 281.710938 101.640625 C 282.496094 101.792969 283.285156 101.871094 284.082031 101.871094 C 284.878906 101.871094 285.667969 101.792969 286.449219 101.640625 C 287.234375 101.484375 287.992188 101.253906 288.730469 100.949219 C 289.464844 100.640625 290.167969 100.269531 290.828125 99.824219 C 291.492188 99.382812 292.105469 98.878906 292.667969 98.316406 C 293.234375 97.75 293.738281 97.136719 294.179688 96.472656 C 294.625 95.8125 294.996094 95.109375 295.300781 94.375 C 295.609375 93.636719 295.839844 92.878906 295.992188 92.097656 C 296.148438 91.3125 296.226562 90.523438 296.226562 89.726562 C 296.226562 88.929688 296.148438 88.140625 295.992188 87.355469 C 295.839844 86.574219 295.609375 85.816406 295.300781 85.078125 C 294.996094 84.339844 294.625 83.640625 294.179688 82.980469 C 293.738281 82.316406 293.234375 81.703125 292.667969 81.136719 C 292.105469 80.574219 291.492188 80.070312 290.828125 79.628906 C 290.167969 79.183594 289.464844 78.808594 288.730469 78.503906 C 287.992188 78.199219 287.234375 77.96875 286.449219 77.8125 C 285.667969 77.660156 284.878906 77.582031 284.082031 77.582031 Z M 78.769531 122.316406 C 53.882812 122.316406 33.4375 142.761719 33.4375 167.945312 C 33.4375 179.203125 37.582031 189.570312 44.394531 197.570312 C 44.691406 197.867188 44.695312 198.160156 44.992188 198.160156 L 101.875 258.601562 C 103.652344 260.378906 106.023438 261.269531 108.394531 261.269531 C 110.46875 261.269531 112.839844 260.378906 114.617188 258.898438 C 118.171875 255.636719 118.464844 250.011719 114.910156 246.457031 L 83.507812 213.269531 C 106.023438 210.898438 123.800781 191.347656 123.800781 167.945312 C 123.800781 142.761719 103.65625 122.316406 78.769531 122.316406 Z M 78.769531 140.09375 C 93.878906 140.09375 106.023438 152.539062 106.023438 167.945312 C 106.023438 183.347656 93.878906 195.792969 78.769531 195.792969 C 71.363281 195.792969 64.546875 192.828125 59.511719 187.792969 L 58.914062 187.199219 C 54.175781 182.164062 51.210938 175.351562 51.210938 167.945312 C 51.210938 152.539062 63.660156 140.09375 78.769531 140.09375 Z M 320.234375 148.933594 C 316.144531 149.226562 312.449219 152.238281 311.933594 156.386719 L 304.527344 205.273438 C 289.121094 174.757812 257.417969 154.015625 221.273438 154.015625 C 169.722656 154.3125 127.949219 196.382812 127.949219 248.527344 C 127.949219 300.671875 170.019531 343.039062 221.570312 343.039062 C 266.601562 343.039062 304.527344 310.453125 313.117188 266.898438 L 313.117188 266.304688 C 313.414062 264.230469 314.003906 261.863281 314.003906 259.789062 L 329.414062 159.054688 C 330.300781 154.316406 326.746094 149.574219 322.007812 148.980469 C 321.414062 148.90625 320.820312 148.894531 320.234375 148.933594 Z M 78.769531 159.054688 C 78.183594 159.054688 77.605469 159.113281 77.035156 159.226562 C 76.460938 159.339844 75.90625 159.507812 75.367188 159.730469 C 74.828125 159.957031 74.316406 160.230469 73.832031 160.554688 C 73.34375 160.878906 72.894531 161.246094 72.484375 161.660156 C 72.070312 162.070312 71.703125 162.519531 71.378906 163.003906 C 71.054688 163.492188 70.78125 164.003906 70.558594 164.542969 C 70.332031 165.082031 70.164062 165.636719 70.050781 166.210938 C 69.9375 166.78125 69.878906 167.359375 69.878906 167.945312 C 69.878906 168.527344 69.9375 169.105469 70.050781 169.675781 C 70.164062 170.25 70.332031 170.804688 70.558594 171.34375 C 70.78125 171.882812 71.054688 172.394531 71.378906 172.882812 C 71.703125 173.367188 72.070312 173.816406 72.484375 174.226562 C 72.894531 174.640625 73.34375 175.007812 73.832031 175.332031 C 74.316406 175.65625 74.828125 175.933594 75.367188 176.15625 C 75.90625 176.378906 76.460938 176.546875 77.035156 176.660156 C 77.605469 176.773438 78.183594 176.832031 78.769531 176.832031 C 79.351562 176.832031 79.929688 176.773438 80.503906 176.660156 C 81.074219 176.546875 81.628906 176.378906 82.167969 176.15625 C 82.707031 175.933594 83.222656 175.65625 83.707031 175.332031 C 84.191406 175.007812 84.640625 174.640625 85.054688 174.226562 C 85.464844 173.816406 85.835938 173.367188 86.160156 172.882812 C 86.484375 172.394531 86.757812 171.882812 86.980469 171.34375 C 87.203125 170.804688 87.371094 170.25 87.484375 169.675781 C 87.597656 169.105469 87.65625 168.527344 87.65625 167.945312 C 87.65625 167.359375 87.597656 166.78125 87.484375 166.210938 C 87.371094 165.636719 87.203125 165.082031 86.980469 164.542969 C 86.757812 164.003906 86.484375 163.492188 86.160156 163.003906 C 85.835938 162.519531 85.464844 162.070312 85.054688 161.660156 C 84.640625 161.246094 84.191406 160.878906 83.707031 160.554688 C 83.222656 160.230469 82.707031 159.957031 82.167969 159.730469 C 81.628906 159.507812 81.074219 159.339844 80.503906 159.226562 C 79.929688 159.113281 79.351562 159.054688 78.769531 159.054688 Z M 221.273438 171.792969 C 263.046875 171.792969 297.117188 206.457031 297.117188 248.527344 C 297.117188 251.488281 296.824219 254.453125 296.527344 257.121094 L 295.636719 263.636719 C 288.824219 298.597656 258.011719 325.261719 221.273438 325.261719 C 179.5 325.261719 145.429688 290.894531 145.429688 248.527344 C 145.429688 206.160156 179.5 171.792969 221.273438 171.792969 Z M 221.863281 191.050781 C 216.828125 191.050781 212.976562 194.902344 212.976562 199.9375 L 212.976562 216.828125 C 210.308594 217.421875 207.941406 218.605469 205.570312 219.792969 L 194.011719 207.941406 C 190.457031 204.386719 184.832031 204.386719 181.574219 207.941406 C 178.015625 211.496094 178.015625 217.121094 181.574219 220.382812 L 193.421875 232.230469 C 192.238281 234.601562 191.054688 236.972656 190.460938 239.640625 L 173.871094 239.640625 C 168.832031 239.640625 164.980469 243.492188 164.980469 248.527344 C 164.980469 253.5625 168.832031 257.414062 173.871094 257.414062 L 190.460938 257.414062 C 191.054688 260.082031 192.238281 262.453125 193.421875 264.820312 L 181.574219 276.671875 C 178.015625 280.226562 178.015625 285.859375 181.574219 289.121094 C 183.351562 290.898438 185.421875 291.78125 187.792969 291.78125 C 190.164062 291.78125 192.234375 290.898438 194.011719 289.121094 L 205.570312 277.269531 C 207.941406 278.453125 210.308594 279.640625 212.976562 280.230469 L 212.976562 297.117188 C 212.976562 302.152344 216.828125 306.003906 221.863281 306.003906 C 226.902344 306.003906 230.753906 302.152344 230.753906 297.117188 L 230.753906 280.230469 C 233.417969 279.640625 235.789062 278.453125 238.160156 277.269531 L 249.714844 289.121094 C 251.492188 290.898438 253.863281 291.78125 255.9375 291.78125 C 258.304688 291.78125 260.378906 290.898438 262.15625 289.121094 C 265.710938 285.566406 265.710938 279.933594 262.15625 276.671875 L 250.304688 264.820312 C 251.492188 262.453125 252.675781 260.082031 253.269531 257.414062 L 269.863281 257.414062 C 274.902344 257.414062 278.753906 253.5625 278.753906 248.527344 C 278.753906 243.492188 274.902344 239.640625 269.863281 239.640625 L 253.269531 239.640625 C 252.675781 236.972656 251.492188 234.601562 250.304688 232.230469 L 262.15625 220.382812 C 265.710938 216.824219 265.710938 211.199219 262.15625 207.941406 C 258.601562 204.386719 252.972656 204.386719 249.714844 207.941406 L 238.160156 219.792969 C 235.789062 218.605469 233.417969 217.421875 230.753906 216.828125 L 230.753906 199.9375 C 230.753906 194.902344 226.902344 191.050781 221.863281 191.050781 Z M 221.273438 233.417969 C 229.570312 233.417969 236.679688 240.527344 236.679688 248.824219 C 236.679688 257.117188 229.867188 264.230469 221.273438 264.230469 C 212.976562 264.230469 205.863281 257.117188 205.863281 248.824219 C 205.863281 240.527344 212.683594 233.417969 221.273438 233.417969 Z M 221.273438 233.417969 " fill-opacity="1" fill-rule="nonzero"/></g></svg>