<svg xmlns="http://www.w3.org/2000/svg" xmlns:xlink="http://www.w3.org/1999/xlink" width="448" zoomAndPan="magnify" viewBox="0 0 336 93.749996" height="125" preserveAspectRatio="xMidYMid meet" version="1.0"><defs><g/><clipPath id="9a249b2450"><path d="M 1.039062 11.738281 L 72.847656 11.738281 L 72.847656 84.292969 L 1.039062 84.292969 Z M 1.039062 11.738281 " clip-rule="nonzero"/></clipPath></defs><g clip-path="url(#9a249b2450)"><path fill="#f3f5f9" d="M 59.523438 11.738281 C 57.730469 11.738281 56.003906 12.082031 54.417969 12.773438 L 54.347656 12.773438 L 20.25 27.683594 C 19.214844 28.164062 18.730469 29.339844 19.214844 30.441406 C 19.558594 31.203125 20.316406 31.6875 21.148438 31.6875 C 21.421875 31.6875 21.699219 31.617188 21.976562 31.476562 L 47.097656 20.503906 C 46.546875 21.953125 46.269531 23.539062 46.269531 25.195312 C 46.269531 32.652344 52.277344 38.65625 59.59375 38.65625 C 66.910156 38.65625 72.84375 32.652344 72.84375 25.195312 C 72.84375 17.742188 66.839844 11.738281 59.523438 11.738281 Z M 59.523438 15.878906 C 64.5625 15.878906 68.703125 20.089844 68.703125 25.195312 C 68.703125 30.304688 64.5625 34.515625 59.523438 34.515625 C 54.484375 34.515625 50.34375 30.304688 50.34375 25.195312 C 50.34375 20.089844 54.484375 15.878906 59.523438 15.878906 Z M 59.453125 22.367188 C 59.078125 22.367188 58.71875 22.4375 58.371094 22.582031 C 58.023438 22.726562 57.71875 22.929688 57.453125 23.195312 C 57.1875 23.460938 56.984375 23.769531 56.839844 24.113281 C 56.695312 24.460938 56.625 24.820312 56.625 25.195312 C 56.625 25.574219 56.695312 25.933594 56.839844 26.28125 C 56.984375 26.625 57.1875 26.933594 57.453125 27.199219 C 57.71875 27.464844 58.023438 27.667969 58.371094 27.8125 C 58.71875 27.953125 59.078125 28.027344 59.453125 28.027344 C 59.828125 28.027344 60.191406 27.953125 60.539062 27.8125 C 60.882812 27.667969 61.191406 27.464844 61.457031 27.199219 C 61.722656 26.933594 61.925781 26.625 62.070312 26.28125 C 62.210938 25.933594 62.285156 25.574219 62.285156 25.195312 C 62.285156 24.820312 62.210938 24.460938 62.070312 24.113281 C 61.925781 23.769531 61.722656 23.460938 61.457031 23.195312 C 61.191406 22.929688 60.882812 22.726562 60.539062 22.582031 C 60.191406 22.4375 59.828125 22.367188 59.453125 22.367188 Z M 11.621094 32.789062 C 5.824219 32.789062 1.0625 37.550781 1.0625 43.417969 C 1.0625 46.042969 2.027344 48.457031 3.613281 50.320312 C 3.683594 50.390625 3.683594 50.460938 3.753906 50.460938 L 17.003906 64.539062 C 17.417969 64.953125 17.972656 65.160156 18.523438 65.160156 C 19.007812 65.160156 19.558594 64.953125 19.972656 64.609375 C 20.800781 63.851562 20.871094 62.539062 20.042969 61.710938 L 12.726562 53.980469 C 17.972656 53.425781 22.113281 48.871094 22.113281 43.417969 C 22.113281 37.550781 17.421875 32.789062 11.621094 32.789062 Z M 11.621094 36.929688 C 15.140625 36.929688 17.972656 39.832031 17.972656 43.417969 C 17.972656 47.007812 15.140625 49.90625 11.621094 49.90625 C 9.898438 49.90625 8.308594 49.21875 7.136719 48.042969 L 6.996094 47.90625 C 5.890625 46.734375 5.203125 45.144531 5.203125 43.417969 C 5.203125 39.832031 8.101562 36.929688 11.621094 36.929688 Z M 67.878906 38.992188 C 66.925781 39.058594 66.0625 39.761719 65.941406 40.726562 L 64.21875 52.117188 C 60.628906 45.007812 53.242188 40.175781 44.820312 40.175781 C 32.8125 40.242188 23.078125 50.046875 23.078125 62.195312 C 23.078125 74.339844 32.878906 84.210938 44.890625 84.210938 C 55.382812 84.210938 64.21875 76.621094 66.21875 66.472656 L 66.21875 66.335938 C 66.289062 65.851562 66.425781 65.300781 66.425781 64.816406 L 70.015625 41.347656 C 70.222656 40.246094 69.394531 39.140625 68.289062 39 C 68.152344 38.984375 68.015625 38.980469 67.878906 38.992188 Z M 11.621094 41.347656 C 11.347656 41.347656 11.082031 41.402344 10.828125 41.507812 C 10.574219 41.613281 10.351562 41.761719 10.15625 41.957031 C 9.964844 42.148438 9.8125 42.375 9.710938 42.628906 C 9.605469 42.878906 9.550781 43.144531 9.550781 43.417969 C 9.550781 43.695312 9.605469 43.957031 9.710938 44.210938 C 9.8125 44.464844 9.964844 44.691406 10.15625 44.882812 C 10.351562 45.078125 10.574219 45.226562 10.828125 45.332031 C 11.082031 45.4375 11.347656 45.492188 11.621094 45.492188 C 11.898438 45.492188 12.160156 45.4375 12.414062 45.332031 C 12.667969 45.226562 12.890625 45.078125 13.085938 44.882812 C 13.28125 44.691406 13.429688 44.464844 13.535156 44.210938 C 13.640625 43.957031 13.691406 43.695312 13.691406 43.417969 C 13.691406 43.144531 13.640625 42.878906 13.535156 42.628906 C 13.429688 42.375 13.28125 42.148438 13.085938 41.957031 C 12.890625 41.761719 12.667969 41.613281 12.414062 41.507812 C 12.160156 41.402344 11.898438 41.347656 11.621094 41.347656 Z M 44.820312 44.316406 C 54.554688 44.316406 62.492188 52.390625 62.492188 62.195312 C 62.492188 62.882812 62.421875 63.574219 62.355469 64.195312 L 62.148438 65.714844 C 60.558594 73.859375 53.382812 80.070312 44.820312 80.070312 C 35.089844 80.070312 27.152344 72.0625 27.152344 62.195312 C 27.152344 52.324219 35.089844 44.316406 44.820312 44.316406 Z M 44.960938 48.800781 C 43.785156 48.800781 42.890625 49.699219 42.890625 50.875 L 42.890625 54.808594 C 42.269531 54.945312 41.714844 55.222656 41.164062 55.5 L 38.472656 52.738281 C 37.644531 51.910156 36.332031 51.910156 35.574219 52.738281 C 34.746094 53.566406 34.746094 54.875 35.574219 55.636719 L 38.332031 58.398438 C 38.058594 58.949219 37.78125 59.5 37.644531 60.121094 L 33.777344 60.121094 C 32.605469 60.121094 31.707031 61.019531 31.707031 62.195312 C 31.707031 63.367188 32.605469 64.265625 33.777344 64.265625 L 37.644531 64.265625 C 37.78125 64.886719 38.058594 65.4375 38.332031 65.988281 L 35.574219 68.75 C 34.746094 69.578125 34.746094 70.890625 35.574219 71.652344 C 35.988281 72.066406 36.46875 72.269531 37.023438 72.269531 C 37.574219 72.269531 38.058594 72.066406 38.472656 71.652344 L 41.164062 68.890625 C 41.714844 69.164062 42.269531 69.441406 42.890625 69.578125 L 42.890625 73.511719 C 42.890625 74.6875 43.785156 75.585938 44.960938 75.585938 C 46.132812 75.585938 47.03125 74.6875 47.03125 73.511719 L 47.03125 69.578125 C 47.652344 69.441406 48.203125 69.164062 48.757812 68.890625 L 51.449219 71.652344 C 51.863281 72.066406 52.414062 72.269531 52.898438 72.269531 C 53.449219 72.269531 53.933594 72.066406 54.347656 71.652344 C 55.175781 70.820312 55.175781 69.511719 54.347656 68.75 L 51.585938 65.988281 C 51.863281 65.4375 52.136719 64.886719 52.277344 64.265625 L 56.140625 64.265625 C 57.316406 64.265625 58.214844 63.367188 58.214844 62.195312 C 58.214844 61.019531 57.316406 60.121094 56.140625 60.121094 L 52.277344 60.121094 C 52.136719 59.5 51.863281 58.949219 51.585938 58.398438 L 54.347656 55.636719 C 55.175781 54.808594 55.175781 53.496094 54.347656 52.738281 C 53.519531 51.910156 52.207031 51.910156 51.449219 52.738281 L 48.757812 55.5 C 48.203125 55.222656 47.652344 54.945312 47.03125 54.808594 L 47.03125 50.875 C 47.03125 49.699219 46.132812 48.800781 44.960938 48.800781 Z M 44.820312 58.671875 C 46.753906 58.671875 48.410156 60.328125 48.410156 62.261719 C 48.410156 64.195312 46.824219 65.851562 44.820312 65.851562 C 42.890625 65.851562 41.230469 64.195312 41.230469 62.261719 C 41.230469 60.328125 42.820312 58.671875 44.820312 58.671875 Z M 44.820312 58.671875 " fill-opacity="1" fill-rule="nonzero"/></g><g fill="#ffffff" fill-opacity="1"><g transform="translate(78.667829, 36.990089)"><g><path d="M 14.484375 0 L 2.59375 0 L 2.59375 -20.640625 L 14.484375 -20.640625 L 14.484375 -17.0625 L 6.96875 -17.0625 L 6.96875 -12.53125 L 13.96875 -12.53125 L 13.96875 -8.9375 L 6.96875 -8.9375 L 6.96875 -3.609375 L 14.484375 -3.609375 Z M 14.484375 0 "/></g></g></g><g fill="#ffffff" fill-opacity="1"><g transform="translate(94.861967, 36.990089)"><g><path d="M 16.390625 0 L 12.09375 0 L 12.09375 -9.21875 C 12.09375 -10.363281 11.898438 -11.21875 11.515625 -11.78125 C 11.128906 -12.351562 10.53125 -12.640625 9.71875 -12.640625 C 8.613281 -12.640625 7.8125 -12.234375 7.3125 -11.421875 C 6.8125 -10.609375 6.5625 -9.273438 6.5625 -7.421875 L 6.5625 0 L 2.265625 0 L 2.265625 -15.78125 L 5.546875 -15.78125 L 6.125 -13.765625 L 6.375 -13.765625 C 6.789062 -14.492188 7.398438 -15.0625 8.203125 -15.46875 C 9.003906 -15.875 9.921875 -16.078125 10.953125 -16.078125 C 13.316406 -16.078125 14.921875 -15.304688 15.765625 -13.765625 L 16.140625 -13.765625 C 16.566406 -14.503906 17.191406 -15.070312 18.015625 -15.46875 C 18.835938 -15.875 19.765625 -16.078125 20.796875 -16.078125 C 22.585938 -16.078125 23.941406 -15.617188 24.859375 -14.703125 C 25.773438 -13.785156 26.234375 -12.316406 26.234375 -10.296875 L 26.234375 0 L 21.921875 0 L 21.921875 -9.21875 C 21.921875 -10.363281 21.726562 -11.21875 21.34375 -11.78125 C 20.96875 -12.351562 20.367188 -12.640625 19.546875 -12.640625 C 18.492188 -12.640625 17.703125 -12.257812 17.171875 -11.5 C 16.648438 -10.75 16.390625 -9.554688 16.390625 -7.921875 Z M 16.390625 0 "/></g></g></g><g fill="#ffffff" fill-opacity="1"><g transform="translate(123.254654, 36.990089)"><g><path d="M 16.390625 0 L 12.09375 0 L 12.09375 -9.21875 C 12.09375 -10.363281 11.898438 -11.21875 11.515625 -11.78125 C 11.128906 -12.351562 10.53125 -12.640625 9.71875 -12.640625 C 8.613281 -12.640625 7.8125 -12.234375 7.3125 -11.421875 C 6.8125 -10.609375 6.5625 -9.273438 6.5625 -7.421875 L 6.5625 0 L 2.265625 0 L 2.265625 -15.78125 L 5.546875 -15.78125 L 6.125 -13.765625 L 6.375 -13.765625 C 6.789062 -14.492188 7.398438 -15.0625 8.203125 -15.46875 C 9.003906 -15.875 9.921875 -16.078125 10.953125 -16.078125 C 13.316406 -16.078125 14.921875 -15.304688 15.765625 -13.765625 L 16.140625 -13.765625 C 16.566406 -14.503906 17.191406 -15.070312 18.015625 -15.46875 C 18.835938 -15.875 19.765625 -16.078125 20.796875 -16.078125 C 22.585938 -16.078125 23.941406 -15.617188 24.859375 -14.703125 C 25.773438 -13.785156 26.234375 -12.316406 26.234375 -10.296875 L 26.234375 0 L 21.921875 0 L 21.921875 -9.21875 C 21.921875 -10.363281 21.726562 -11.21875 21.34375 -11.78125 C 20.96875 -12.351562 20.367188 -12.640625 19.546875 -12.640625 C 18.492188 -12.640625 17.703125 -12.257812 17.171875 -11.5 C 16.648438 -10.75 16.390625 -9.554688 16.390625 -7.921875 Z M 16.390625 0 "/></g></g></g><g fill="#ffffff" fill-opacity="1"><g transform="translate(151.64734, 36.990089)"><g><path d="M 12.28125 0 L 11.453125 -2.140625 L 11.34375 -2.140625 C 10.613281 -1.234375 9.863281 -0.601562 9.09375 -0.25 C 8.332031 0.101562 7.332031 0.28125 6.09375 0.28125 C 4.582031 0.28125 3.390625 -0.148438 2.515625 -1.015625 C 1.648438 -1.878906 1.21875 -3.113281 1.21875 -4.71875 C 1.21875 -6.394531 1.800781 -7.628906 2.96875 -8.421875 C 4.144531 -9.210938 5.914062 -9.65625 8.28125 -9.75 L 11.015625 -9.828125 L 11.015625 -10.515625 C 11.015625 -12.117188 10.195312 -12.921875 8.5625 -12.921875 C 7.300781 -12.921875 5.816406 -12.539062 4.109375 -11.78125 L 2.6875 -14.6875 C 4.5 -15.632812 6.515625 -16.109375 8.734375 -16.109375 C 10.847656 -16.109375 12.46875 -15.644531 13.59375 -14.71875 C 14.726562 -13.800781 15.296875 -12.398438 15.296875 -10.515625 L 15.296875 0 Z M 11.015625 -7.3125 L 9.34375 -7.265625 C 8.09375 -7.222656 7.160156 -6.992188 6.546875 -6.578125 C 5.941406 -6.160156 5.640625 -5.53125 5.640625 -4.6875 C 5.640625 -3.46875 6.332031 -2.859375 7.71875 -2.859375 C 8.71875 -2.859375 9.515625 -3.144531 10.109375 -3.71875 C 10.710938 -4.300781 11.015625 -5.066406 11.015625 -6.015625 Z M 11.015625 -7.3125 "/></g></g></g><g fill="#ffffff" fill-opacity="1"><g transform="translate(169.11216, 36.990089)"><g><path d="M 5.734375 -20.640625 L 5.9375 -20.328125 C 5.457031 -18.472656 4.628906 -16.222656 3.453125 -13.578125 L 0.359375 -13.578125 C 1.003906 -16.359375 1.472656 -18.710938 1.765625 -20.640625 Z M 5.734375 -20.640625 "/></g></g></g><g fill="#ffffff" fill-opacity="1"><g transform="translate(175.380859, 36.990089)"><g><path d="M 13.28125 -4.6875 C 13.28125 -3.070312 12.71875 -1.835938 11.59375 -0.984375 C 10.46875 -0.140625 8.78125 0.28125 6.53125 0.28125 C 5.382812 0.28125 4.40625 0.203125 3.59375 0.046875 C 2.789062 -0.109375 2.035156 -0.335938 1.328125 -0.640625 L 1.328125 -4.1875 C 2.128906 -3.8125 3.03125 -3.492188 4.03125 -3.234375 C 5.03125 -2.984375 5.914062 -2.859375 6.6875 -2.859375 C 8.25 -2.859375 9.03125 -3.3125 9.03125 -4.21875 C 9.03125 -4.5625 8.925781 -4.835938 8.71875 -5.046875 C 8.507812 -5.253906 8.148438 -5.492188 7.640625 -5.765625 C 7.128906 -6.035156 6.453125 -6.347656 5.609375 -6.703125 C 4.390625 -7.210938 3.492188 -7.679688 2.921875 -8.109375 C 2.359375 -8.546875 1.945312 -9.046875 1.6875 -9.609375 C 1.425781 -10.171875 1.296875 -10.859375 1.296875 -11.671875 C 1.296875 -13.078125 1.835938 -14.160156 2.921875 -14.921875 C 4.015625 -15.691406 5.5625 -16.078125 7.5625 -16.078125 C 9.457031 -16.078125 11.304688 -15.664062 13.109375 -14.84375 L 11.8125 -11.734375 C 11.019531 -12.078125 10.28125 -12.351562 9.59375 -12.5625 C 8.90625 -12.78125 8.203125 -12.890625 7.484375 -12.890625 C 6.210938 -12.890625 5.578125 -12.546875 5.578125 -11.859375 C 5.578125 -11.472656 5.78125 -11.140625 6.1875 -10.859375 C 6.601562 -10.578125 7.5 -10.160156 8.875 -9.609375 C 10.113281 -9.109375 11.019531 -8.640625 11.59375 -8.203125 C 12.164062 -7.773438 12.585938 -7.273438 12.859375 -6.703125 C 13.140625 -6.140625 13.28125 -5.46875 13.28125 -4.6875 Z M 13.28125 -4.6875 "/></g></g></g><g fill="#ffffff" fill-opacity="1"><g transform="translate(189.753685, 36.990089)"><g/></g></g><g fill="#ffffff" fill-opacity="1"><g transform="translate(197.264829, 36.990089)"><g><path d="M 14.78125 -5.734375 C 14.78125 -3.867188 14.109375 -2.398438 12.765625 -1.328125 C 11.429688 -0.253906 9.566406 0.28125 7.171875 0.28125 C 4.972656 0.28125 3.023438 -0.128906 1.328125 -0.953125 L 1.328125 -5.03125 C 2.722656 -4.40625 3.898438 -3.960938 4.859375 -3.703125 C 5.828125 -3.453125 6.710938 -3.328125 7.515625 -3.328125 C 8.472656 -3.328125 9.207031 -3.507812 9.71875 -3.875 C 10.238281 -4.25 10.5 -4.796875 10.5 -5.515625 C 10.5 -5.921875 10.382812 -6.28125 10.15625 -6.59375 C 9.925781 -6.914062 9.59375 -7.222656 9.15625 -7.515625 C 8.71875 -7.804688 7.828125 -8.269531 6.484375 -8.90625 C 5.222656 -9.5 4.273438 -10.066406 3.640625 -10.609375 C 3.015625 -11.160156 2.507812 -11.796875 2.125 -12.515625 C 1.75 -13.242188 1.5625 -14.09375 1.5625 -15.0625 C 1.5625 -16.894531 2.179688 -18.332031 3.421875 -19.375 C 4.660156 -20.414062 6.375 -20.9375 8.5625 -20.9375 C 9.632812 -20.9375 10.65625 -20.8125 11.625 -20.5625 C 12.601562 -20.3125 13.625 -19.953125 14.6875 -19.484375 L 13.28125 -16.078125 C 12.175781 -16.535156 11.265625 -16.851562 10.546875 -17.03125 C 9.828125 -17.207031 9.117188 -17.296875 8.421875 -17.296875 C 7.585938 -17.296875 6.945312 -17.101562 6.5 -16.71875 C 6.0625 -16.332031 5.84375 -15.828125 5.84375 -15.203125 C 5.84375 -14.816406 5.929688 -14.476562 6.109375 -14.1875 C 6.296875 -13.90625 6.582031 -13.628906 6.96875 -13.359375 C 7.363281 -13.097656 8.289062 -12.617188 9.75 -11.921875 C 11.675781 -10.992188 12.992188 -10.066406 13.703125 -9.140625 C 14.421875 -8.210938 14.78125 -7.078125 14.78125 -5.734375 Z M 14.78125 -5.734375 "/></g></g></g><g fill="#ffffff" fill-opacity="1"><g transform="translate(213.190712, 36.990089)"><g><path d="M 16.390625 0 L 12.09375 0 L 12.09375 -9.21875 C 12.09375 -10.363281 11.898438 -11.21875 11.515625 -11.78125 C 11.128906 -12.351562 10.53125 -12.640625 9.71875 -12.640625 C 8.613281 -12.640625 7.8125 -12.234375 7.3125 -11.421875 C 6.8125 -10.609375 6.5625 -9.273438 6.5625 -7.421875 L 6.5625 0 L 2.265625 0 L 2.265625 -15.78125 L 5.546875 -15.78125 L 6.125 -13.765625 L 6.375 -13.765625 C 6.789062 -14.492188 7.398438 -15.0625 8.203125 -15.46875 C 9.003906 -15.875 9.921875 -16.078125 10.953125 -16.078125 C 13.316406 -16.078125 14.921875 -15.304688 15.765625 -13.765625 L 16.140625 -13.765625 C 16.566406 -14.503906 17.191406 -15.070312 18.015625 -15.46875 C 18.835938 -15.875 19.765625 -16.078125 20.796875 -16.078125 C 22.585938 -16.078125 23.941406 -15.617188 24.859375 -14.703125 C 25.773438 -13.785156 26.234375 -12.316406 26.234375 -10.296875 L 26.234375 0 L 21.921875 0 L 21.921875 -9.21875 C 21.921875 -10.363281 21.726562 -11.21875 21.34375 -11.78125 C 20.96875 -12.351562 20.367188 -12.640625 19.546875 -12.640625 C 18.492188 -12.640625 17.703125 -12.257812 17.171875 -11.5 C 16.648438 -10.75 16.390625 -9.554688 16.390625 -7.921875 Z M 16.390625 0 "/></g></g></g><g fill="#ffffff" fill-opacity="1"><g transform="translate(241.583398, 36.990089)"><g><path d="M 12.28125 0 L 11.453125 -2.140625 L 11.34375 -2.140625 C 10.613281 -1.234375 9.863281 -0.601562 9.09375 -0.25 C 8.332031 0.101562 7.332031 0.28125 6.09375 0.28125 C 4.582031 0.28125 3.390625 -0.148438 2.515625 -1.015625 C 1.648438 -1.878906 1.21875 -3.113281 1.21875 -4.71875 C 1.21875 -6.394531 1.800781 -7.628906 2.96875 -8.421875 C 4.144531 -9.210938 5.914062 -9.65625 8.28125 -9.75 L 11.015625 -9.828125 L 11.015625 -10.515625 C 11.015625 -12.117188 10.195312 -12.921875 8.5625 -12.921875 C 7.300781 -12.921875 5.816406 -12.539062 4.109375 -11.78125 L 2.6875 -14.6875 C 4.5 -15.632812 6.515625 -16.109375 8.734375 -16.109375 C 10.847656 -16.109375 12.46875 -15.644531 13.59375 -14.71875 C 14.726562 -13.800781 15.296875 -12.398438 15.296875 -10.515625 L 15.296875 0 Z M 11.015625 -7.3125 L 9.34375 -7.265625 C 8.09375 -7.222656 7.160156 -6.992188 6.546875 -6.578125 C 5.941406 -6.160156 5.640625 -5.53125 5.640625 -4.6875 C 5.640625 -3.46875 6.332031 -2.859375 7.71875 -2.859375 C 8.71875 -2.859375 9.515625 -3.144531 10.109375 -3.71875 C 10.710938 -4.300781 11.015625 -5.066406 11.015625 -6.015625 Z M 11.015625 -7.3125 "/></g></g></g><g fill="#ffffff" fill-opacity="1"><g transform="translate(259.048218, 36.990089)"><g><path d="M 6.5625 0 L 2.265625 0 L 2.265625 -21.96875 L 6.5625 -21.96875 Z M 6.5625 0 "/></g></g></g><g fill="#ffffff" fill-opacity="1"><g transform="translate(267.8724, 36.990089)"><g><path d="M 6.5625 0 L 2.265625 0 L 2.265625 -21.96875 L 6.5625 -21.96875 Z M 6.5625 0 "/></g></g></g><g fill="#ffffff" fill-opacity="1"><g transform="translate(78.667829, 77.382373)"><g><path d="M 14.484375 0 L 2.59375 0 L 2.59375 -20.640625 L 14.484375 -20.640625 L 14.484375 -17.0625 L 6.96875 -17.0625 L 6.96875 -12.53125 L 13.96875 -12.53125 L 13.96875 -8.9375 L 6.96875 -8.9375 L 6.96875 -3.609375 L 14.484375 -3.609375 Z M 14.484375 0 "/></g></g></g><g fill="#ffffff" fill-opacity="1"><g transform="translate(94.861967, 77.382373)"><g><path d="M 16.828125 0 L 12.53125 0 L 12.53125 -9.21875 C 12.53125 -10.363281 12.328125 -11.21875 11.921875 -11.78125 C 11.515625 -12.351562 10.867188 -12.640625 9.984375 -12.640625 C 8.773438 -12.640625 7.898438 -12.234375 7.359375 -11.421875 C 6.828125 -10.617188 6.5625 -9.285156 6.5625 -7.421875 L 6.5625 0 L 2.265625 0 L 2.265625 -15.78125 L 5.546875 -15.78125 L 6.125 -13.765625 L 6.375 -13.765625 C 6.851562 -14.523438 7.507812 -15.097656 8.34375 -15.484375 C 9.1875 -15.878906 10.148438 -16.078125 11.234375 -16.078125 C 13.066406 -16.078125 14.457031 -15.582031 15.40625 -14.59375 C 16.351562 -13.601562 16.828125 -12.171875 16.828125 -10.296875 Z M 16.828125 0 "/></g></g></g><g fill="#ffffff" fill-opacity="1"><g transform="translate(113.865724, 77.382373)"><g><path d="M 16 -15.78125 L 16 -13.59375 L 13.53125 -12.96875 C 13.976562 -12.257812 14.203125 -11.46875 14.203125 -10.59375 C 14.203125 -8.894531 13.609375 -7.570312 12.421875 -6.625 C 11.242188 -5.6875 9.609375 -5.21875 7.515625 -5.21875 L 6.734375 -5.25 L 6.09375 -5.328125 C 5.65625 -4.984375 5.4375 -4.601562 5.4375 -4.1875 C 5.4375 -3.570312 6.226562 -3.265625 7.8125 -3.265625 L 10.5 -3.265625 C 12.226562 -3.265625 13.546875 -2.890625 14.453125 -2.140625 C 15.359375 -1.398438 15.8125 -0.3125 15.8125 1.125 C 15.8125 2.96875 15.039062 4.398438 13.5 5.421875 C 11.96875 6.441406 9.757812 6.953125 6.875 6.953125 C 4.675781 6.953125 2.992188 6.566406 1.828125 5.796875 C 0.660156 5.023438 0.078125 3.945312 0.078125 2.5625 C 0.078125 1.613281 0.375 0.816406 0.96875 0.171875 C 1.5625 -0.460938 2.4375 -0.914062 3.59375 -1.1875 C 3.144531 -1.375 2.753906 -1.679688 2.421875 -2.109375 C 2.097656 -2.535156 1.9375 -2.988281 1.9375 -3.46875 C 1.9375 -4.070312 2.109375 -4.570312 2.453125 -4.96875 C 2.804688 -5.375 3.3125 -5.769531 3.96875 -6.15625 C 3.132812 -6.507812 2.472656 -7.082031 1.984375 -7.875 C 1.503906 -8.664062 1.265625 -9.597656 1.265625 -10.671875 C 1.265625 -12.398438 1.820312 -13.734375 2.9375 -14.671875 C 4.0625 -15.609375 5.664062 -16.078125 7.75 -16.078125 C 8.195312 -16.078125 8.722656 -16.035156 9.328125 -15.953125 C 9.929688 -15.878906 10.320312 -15.820312 10.5 -15.78125 Z M 3.8125 2.234375 C 3.8125 2.828125 4.09375 3.289062 4.65625 3.625 C 5.226562 3.96875 6.03125 4.140625 7.0625 4.140625 C 8.601562 4.140625 9.8125 3.925781 10.6875 3.5 C 11.5625 3.070312 12 2.492188 12 1.765625 C 12 1.171875 11.738281 0.757812 11.21875 0.53125 C 10.707031 0.3125 9.910156 0.203125 8.828125 0.203125 L 6.59375 0.203125 C 5.800781 0.203125 5.140625 0.382812 4.609375 0.75 C 4.078125 1.125 3.8125 1.617188 3.8125 2.234375 Z M 5.375 -10.625 C 5.375 -9.757812 5.566406 -9.078125 5.953125 -8.578125 C 6.347656 -8.085938 6.945312 -7.84375 7.75 -7.84375 C 8.5625 -7.84375 9.15625 -8.085938 9.53125 -8.578125 C 9.90625 -9.078125 10.09375 -9.757812 10.09375 -10.625 C 10.09375 -12.519531 9.3125 -13.46875 7.75 -13.46875 C 6.164062 -13.46875 5.375 -12.519531 5.375 -10.625 Z M 5.375 -10.625 "/></g></g></g><g fill="#ffffff" fill-opacity="1"><g transform="translate(130.201049, 77.382373)"><g><path d="M 2.078125 -19.875 C 2.078125 -21.269531 2.859375 -21.96875 4.421875 -21.96875 C 5.984375 -21.96875 6.765625 -21.269531 6.765625 -19.875 C 6.765625 -19.195312 6.566406 -18.671875 6.171875 -18.296875 C 5.785156 -17.929688 5.203125 -17.75 4.421875 -17.75 C 2.859375 -17.75 2.078125 -18.457031 2.078125 -19.875 Z M 6.5625 0 L 2.265625 0 L 2.265625 -15.78125 L 6.5625 -15.78125 Z M 6.5625 0 "/></g></g></g><g fill="#ffffff" fill-opacity="1"><g transform="translate(139.025231, 77.382373)"><g><path d="M 16.828125 0 L 12.53125 0 L 12.53125 -9.21875 C 12.53125 -10.363281 12.328125 -11.21875 11.921875 -11.78125 C 11.515625 -12.351562 10.867188 -12.640625 9.984375 -12.640625 C 8.773438 -12.640625 7.898438 -12.234375 7.359375 -11.421875 C 6.828125 -10.617188 6.5625 -9.285156 6.5625 -7.421875 L 6.5625 0 L 2.265625 0 L 2.265625 -15.78125 L 5.546875 -15.78125 L 6.125 -13.765625 L 6.375 -13.765625 C 6.851562 -14.523438 7.507812 -15.097656 8.34375 -15.484375 C 9.1875 -15.878906 10.148438 -16.078125 11.234375 -16.078125 C 13.066406 -16.078125 14.457031 -15.582031 15.40625 -14.59375 C 16.351562 -13.601562 16.828125 -12.171875 16.828125 -10.296875 Z M 16.828125 0 "/></g></g></g><g fill="#ffffff" fill-opacity="1"><g transform="translate(158.028988, 77.382373)"><g><path d="M 8.796875 -13.015625 C 7.878906 -13.015625 7.160156 -12.722656 6.640625 -12.140625 C 6.128906 -11.566406 5.835938 -10.75 5.765625 -9.6875 L 11.8125 -9.6875 C 11.789062 -10.75 11.507812 -11.566406 10.96875 -12.140625 C 10.4375 -12.722656 9.710938 -13.015625 8.796875 -13.015625 Z M 9.40625 0.28125 C 6.863281 0.28125 4.875 -0.414062 3.4375 -1.8125 C 2.007812 -3.21875 1.296875 -5.207031 1.296875 -7.78125 C 1.296875 -10.425781 1.957031 -12.46875 3.28125 -13.90625 C 4.601562 -15.351562 6.429688 -16.078125 8.765625 -16.078125 C 10.992188 -16.078125 12.726562 -15.441406 13.96875 -14.171875 C 15.21875 -12.898438 15.84375 -11.144531 15.84375 -8.90625 L 15.84375 -6.828125 L 5.65625 -6.828125 C 5.707031 -5.597656 6.070312 -4.640625 6.75 -3.953125 C 7.425781 -3.265625 8.378906 -2.921875 9.609375 -2.921875 C 10.554688 -2.921875 11.453125 -3.019531 12.296875 -3.21875 C 13.148438 -3.414062 14.035156 -3.734375 14.953125 -4.171875 L 14.953125 -0.828125 C 14.203125 -0.453125 13.394531 -0.175781 12.53125 0 C 11.675781 0.1875 10.632812 0.28125 9.40625 0.28125 Z M 9.40625 0.28125 "/></g></g></g><g fill="#ffffff" fill-opacity="1"><g transform="translate(175.112604, 77.382373)"><g><path d="M 13.28125 -4.6875 C 13.28125 -3.070312 12.71875 -1.835938 11.59375 -0.984375 C 10.46875 -0.140625 8.78125 0.28125 6.53125 0.28125 C 5.382812 0.28125 4.40625 0.203125 3.59375 0.046875 C 2.789062 -0.109375 2.035156 -0.335938 1.328125 -0.640625 L 1.328125 -4.1875 C 2.128906 -3.8125 3.03125 -3.492188 4.03125 -3.234375 C 5.03125 -2.984375 5.914062 -2.859375 6.6875 -2.859375 C 8.25 -2.859375 9.03125 -3.3125 9.03125 -4.21875 C 9.03125 -4.5625 8.925781 -4.835938 8.71875 -5.046875 C 8.507812 -5.253906 8.148438 -5.492188 7.640625 -5.765625 C 7.128906 -6.035156 6.453125 -6.347656 5.609375 -6.703125 C 4.390625 -7.210938 3.492188 -7.679688 2.921875 -8.109375 C 2.359375 -8.546875 1.945312 -9.046875 1.6875 -9.609375 C 1.425781 -10.171875 1.296875 -10.859375 1.296875 -11.671875 C 1.296875 -13.078125 1.835938 -14.160156 2.921875 -14.921875 C 4.015625 -15.691406 5.5625 -16.078125 7.5625 -16.078125 C 9.457031 -16.078125 11.304688 -15.664062 13.109375 -14.84375 L 11.8125 -11.734375 C 11.019531 -12.078125 10.28125 -12.351562 9.59375 -12.5625 C 8.90625 -12.78125 8.203125 -12.890625 7.484375 -12.890625 C 6.210938 -12.890625 5.578125 -12.546875 5.578125 -11.859375 C 5.578125 -11.472656 5.78125 -11.140625 6.1875 -10.859375 C 6.601562 -10.578125 7.5 -10.160156 8.875 -9.609375 C 10.113281 -9.109375 11.019531 -8.640625 11.59375 -8.203125 C 12.164062 -7.773438 12.585938 -7.273438 12.859375 -6.703125 C 13.140625 -6.140625 13.28125 -5.46875 13.28125 -4.6875 Z M 13.28125 -4.6875 "/></g></g></g></svg>