<svg xmlns="http://www.w3.org/2000/svg" xmlns:xlink="http://www.w3.org/1999/xlink" width="500" zoomAndPan="magnify" viewBox="0 0 375 374.999991" height="500" preserveAspectRatio="xMidYMid meet" version="1.0"><defs><g/><clipPath id="6709a0ef1b"><path d="M 109.398438 44.613281 L 265.625 44.613281 L 265.625 202.023438 L 109.398438 202.023438 Z M 109.398438 44.613281 " clip-rule="nonzero"/></clipPath></defs><g clip-path="url(#6709a0ef1b)"><path fill="#7ed321" d="M 236.59375 44.613281 C 232.691406 44.613281 228.941406 45.363281 225.488281 46.863281 L 225.335938 46.863281 L 151.1875 79.242188 C 148.933594 80.292969 147.882812 82.839844 148.933594 85.238281 C 149.683594 86.886719 151.335938 87.9375 153.136719 87.9375 C 153.738281 87.9375 154.339844 87.789062 154.9375 87.488281 L 209.574219 63.652344 C 208.375 66.800781 207.773438 70.25 207.773438 73.847656 C 207.773438 90.035156 220.835938 103.078125 236.746094 103.078125 C 252.660156 103.078125 265.566406 90.035156 265.566406 73.847656 C 265.566406 57.65625 252.507812 44.613281 236.59375 44.613281 Z M 236.59375 53.609375 C 247.550781 53.609375 256.558594 62.753906 256.558594 73.847656 C 256.558594 84.941406 247.550781 94.085938 236.59375 94.085938 C 225.636719 94.085938 216.632812 84.941406 216.632812 73.847656 C 216.632812 62.753906 225.636719 53.609375 236.59375 53.609375 Z M 236.445312 67.699219 C 236.039062 67.699219 235.640625 67.738281 235.246094 67.820312 C 234.847656 67.898438 234.464844 68.015625 234.089844 68.167969 C 233.71875 68.324219 233.363281 68.511719 233.027344 68.738281 C 232.691406 68.960938 232.378906 69.214844 232.09375 69.5 C 231.808594 69.785156 231.554688 70.097656 231.328125 70.433594 C 231.105469 70.769531 230.914062 71.121094 230.761719 71.496094 C 230.605469 71.867188 230.488281 72.25 230.410156 72.648438 C 230.332031 73.042969 230.292969 73.441406 230.292969 73.847656 C 230.292969 74.25 230.332031 74.648438 230.410156 75.046875 C 230.488281 75.441406 230.605469 75.824219 230.761719 76.199219 C 230.914062 76.570312 231.105469 76.925781 231.328125 77.261719 C 231.554688 77.597656 231.808594 77.90625 232.09375 78.191406 C 232.378906 78.476562 232.691406 78.730469 233.027344 78.957031 C 233.363281 79.179688 233.71875 79.371094 234.089844 79.523438 C 234.464844 79.679688 234.847656 79.796875 235.246094 79.875 C 235.640625 79.953125 236.039062 79.992188 236.445312 79.992188 C 236.847656 79.992188 237.25 79.953125 237.644531 79.875 C 238.042969 79.796875 238.425781 79.679688 238.800781 79.523438 C 239.171875 79.371094 239.527344 79.179688 239.863281 78.957031 C 240.199219 78.730469 240.511719 78.476562 240.796875 78.191406 C 241.082031 77.90625 241.335938 77.597656 241.5625 77.261719 C 241.785156 76.925781 241.976562 76.570312 242.128906 76.199219 C 242.285156 75.824219 242.402344 75.441406 242.480469 75.046875 C 242.558594 74.648438 242.597656 74.25 242.597656 73.847656 C 242.597656 73.441406 242.558594 73.042969 242.480469 72.648438 C 242.402344 72.25 242.285156 71.867188 242.128906 71.496094 C 241.976562 71.121094 241.785156 70.769531 241.5625 70.433594 C 241.335938 70.097656 241.082031 69.785156 240.796875 69.5 C 240.511719 69.214844 240.199219 68.960938 239.863281 68.738281 C 239.527344 68.511719 239.171875 68.324219 238.800781 68.167969 C 238.425781 68.015625 238.042969 67.898438 237.644531 67.820312 C 237.25 67.738281 236.847656 67.699219 236.445312 67.699219 Z M 132.421875 90.335938 C 119.8125 90.335938 109.457031 100.679688 109.457031 113.425781 C 109.457031 119.121094 111.554688 124.367188 115.007812 128.414062 C 115.160156 128.566406 115.160156 128.714844 115.308594 128.714844 L 144.128906 159.296875 C 145.03125 160.195312 146.234375 160.644531 147.433594 160.644531 C 148.484375 160.644531 149.683594 160.195312 150.585938 159.445312 C 152.386719 157.796875 152.535156 154.949219 150.734375 153.152344 L 134.824219 136.359375 C 146.230469 135.160156 155.238281 125.265625 155.238281 113.425781 C 155.238281 100.679688 145.03125 90.335938 132.421875 90.335938 Z M 132.421875 99.332031 C 140.078125 99.332031 146.230469 105.628906 146.230469 113.425781 C 146.230469 121.21875 140.078125 127.515625 132.421875 127.515625 C 128.671875 127.515625 125.21875 126.015625 122.667969 123.46875 L 122.363281 123.167969 C 119.960938 120.621094 118.460938 117.171875 118.460938 113.425781 C 118.460938 105.628906 124.769531 99.332031 132.421875 99.332031 Z M 254.761719 103.804688 C 252.691406 103.953125 250.816406 105.476562 250.554688 107.578125 L 246.804688 132.3125 C 238.996094 116.871094 222.9375 106.375 204.625 106.375 C 178.503906 106.527344 157.339844 127.8125 157.339844 154.199219 C 157.339844 180.582031 178.65625 202.023438 204.773438 202.023438 C 227.589844 202.023438 246.804688 185.53125 251.15625 163.496094 L 251.15625 163.195312 C 251.308594 162.144531 251.605469 160.945312 251.605469 159.898438 L 259.414062 108.925781 C 259.863281 106.527344 258.0625 104.128906 255.660156 103.828125 C 255.359375 103.792969 255.058594 103.785156 254.761719 103.804688 Z M 132.421875 108.925781 C 132.128906 108.925781 131.835938 108.957031 131.542969 109.011719 C 131.253906 109.070312 130.972656 109.15625 130.699219 109.269531 C 130.425781 109.382812 130.167969 109.519531 129.921875 109.683594 C 129.675781 109.847656 129.449219 110.035156 129.238281 110.242188 C 129.03125 110.453125 128.84375 110.679688 128.679688 110.925781 C 128.515625 111.171875 128.375 111.429688 128.261719 111.703125 C 128.148438 111.976562 128.0625 112.257812 128.007812 112.546875 C 127.949219 112.835938 127.917969 113.128906 127.917969 113.425781 C 127.917969 113.71875 127.949219 114.011719 128.007812 114.300781 C 128.0625 114.589844 128.148438 114.871094 128.261719 115.144531 C 128.375 115.417969 128.515625 115.675781 128.679688 115.921875 C 128.84375 116.167969 129.03125 116.394531 129.238281 116.605469 C 129.449219 116.8125 129.675781 117 129.921875 117.164062 C 130.167969 117.328125 130.425781 117.464844 130.699219 117.578125 C 130.972656 117.691406 131.253906 117.777344 131.542969 117.835938 C 131.835938 117.890625 132.128906 117.921875 132.421875 117.921875 C 132.71875 117.921875 133.011719 117.890625 133.300781 117.835938 C 133.589844 117.777344 133.875 117.691406 134.144531 117.578125 C 134.417969 117.464844 134.679688 117.328125 134.925781 117.164062 C 135.171875 117 135.398438 116.8125 135.605469 116.605469 C 135.816406 116.394531 136.003906 116.167969 136.167969 115.921875 C 136.332031 115.675781 136.46875 115.417969 136.582031 115.144531 C 136.695312 114.871094 136.78125 114.589844 136.839844 114.300781 C 136.898438 114.011719 136.925781 113.71875 136.925781 113.425781 C 136.925781 113.128906 136.898438 112.835938 136.839844 112.546875 C 136.78125 112.257812 136.695312 111.976562 136.582031 111.703125 C 136.46875 111.429688 136.332031 111.171875 136.167969 110.925781 C 136.003906 110.679688 135.816406 110.453125 135.605469 110.242188 C 135.398438 110.035156 135.171875 109.847656 134.925781 109.683594 C 134.679688 109.519531 134.417969 109.382812 134.144531 109.269531 C 133.875 109.15625 133.589844 109.070312 133.300781 109.011719 C 133.011719 108.957031 132.71875 108.925781 132.421875 108.925781 Z M 204.625 115.371094 C 225.789062 115.371094 243.050781 132.910156 243.050781 154.199219 C 243.050781 155.699219 242.902344 157.199219 242.75 158.546875 L 242.300781 161.84375 C 238.847656 179.535156 223.238281 193.027344 204.625 193.027344 C 183.457031 193.027344 166.195312 175.636719 166.195312 154.199219 C 166.195312 132.761719 183.457031 115.371094 204.625 115.371094 Z M 204.921875 125.117188 C 202.371094 125.117188 200.417969 127.0625 200.417969 129.613281 L 200.417969 138.160156 C 199.070312 138.460938 197.867188 139.058594 196.667969 139.660156 L 190.8125 133.664062 C 189.011719 131.863281 186.160156 131.863281 184.507812 133.664062 C 182.707031 135.460938 182.707031 138.308594 184.507812 139.957031 L 190.511719 145.953125 C 189.914062 147.152344 189.3125 148.351562 189.011719 149.703125 L 180.605469 149.703125 C 178.054688 149.703125 176.101562 151.652344 176.101562 154.199219 C 176.101562 156.746094 178.054688 158.695312 180.605469 158.695312 L 189.011719 158.695312 C 189.3125 160.046875 189.914062 161.246094 190.511719 162.445312 L 184.507812 168.441406 C 182.707031 170.238281 182.707031 173.089844 184.507812 174.738281 C 185.410156 175.636719 186.460938 176.085938 187.660156 176.085938 C 188.859375 176.085938 189.910156 175.636719 190.8125 174.738281 L 196.667969 168.742188 C 197.867188 169.34375 199.070312 169.941406 200.417969 170.242188 L 200.417969 178.785156 C 200.417969 181.332031 202.371094 183.28125 204.921875 183.28125 C 207.472656 183.28125 209.425781 181.332031 209.425781 178.785156 L 209.425781 170.242188 C 210.777344 169.941406 211.976562 169.34375 213.179688 168.742188 L 219.035156 174.738281 C 219.933594 175.636719 221.132812 176.085938 222.183594 176.085938 C 223.386719 176.085938 224.4375 175.636719 225.335938 174.738281 C 227.136719 172.941406 227.136719 170.089844 225.335938 168.441406 L 219.332031 162.445312 C 219.933594 161.246094 220.53125 160.046875 220.832031 158.695312 L 229.242188 158.695312 C 231.792969 158.695312 233.746094 156.746094 233.746094 154.199219 C 233.746094 151.652344 231.792969 149.703125 229.242188 149.703125 L 220.832031 149.703125 C 220.53125 148.351562 219.933594 147.152344 219.332031 145.953125 L 225.335938 139.957031 C 227.136719 138.160156 227.136719 135.3125 225.335938 133.664062 C 223.535156 131.863281 220.683594 131.863281 219.035156 133.664062 L 213.179688 139.660156 C 211.976562 139.058594 210.777344 138.460938 209.425781 138.160156 L 209.425781 129.613281 C 209.425781 127.0625 207.472656 125.117188 204.921875 125.117188 Z M 204.625 146.554688 C 208.828125 146.554688 212.429688 150.152344 212.429688 154.347656 C 212.429688 158.546875 208.976562 162.144531 204.625 162.144531 C 200.421875 162.144531 196.816406 158.546875 196.816406 154.347656 C 196.816406 150.152344 200.269531 146.554688 204.625 146.554688 Z M 204.625 146.554688 " fill-opacity="1" fill-rule="nonzero"/></g><g fill="#000000" fill-opacity="1"><g transform="translate(3.365638, 278.524365)"><g><path d="M 26.921875 -47.007812 C 26.921875 -47.605469 26.679688 -47.964844 25.960938 -47.964844 L 3.898438 -47.964844 C 3.359375 -47.964844 2.996094 -47.605469 2.996094 -47.007812 L 2.996094 -0.960938 C 2.996094 -0.359375 3.359375 0 3.898438 0 L 25.960938 0 C 26.679688 0 26.921875 -0.359375 26.921875 -0.960938 L 26.921875 -6.953125 C 26.921875 -7.613281 26.679688 -7.914062 25.960938 -7.914062 L 10.972656 -7.914062 L 10.972656 -20.027344 L 22.425781 -20.027344 C 23.023438 -20.027344 23.382812 -20.386719 23.382812 -21.046875 L 23.382812 -26.980469 C 23.382812 -27.640625 23.023438 -28 22.425781 -28 L 10.972656 -28 L 10.972656 -39.992188 L 25.960938 -39.992188 C 26.679688 -39.992188 26.921875 -40.410156 26.921875 -41.011719 Z M 26.921875 -47.007812 "/></g></g></g><g fill="#000000" fill-opacity="1"><g transform="translate(33.282045, 278.524365)"><g><path d="M 28.058594 -47.964844 C 27.339844 -47.964844 26.921875 -47.605469 26.742188 -46.886719 L 20.085938 -17.027344 L 13.429688 -46.886719 C 13.25 -47.605469 12.832031 -47.964844 12.113281 -47.964844 L 4.195312 -47.964844 C 3.417969 -47.964844 2.996094 -47.546875 2.996094 -46.765625 L 2.996094 -1.199219 C 2.996094 -0.417969 3.417969 0 4.195312 0 L 9.714844 0 C 10.492188 0 10.914062 -0.417969 10.914062 -1.199219 L 10.914062 -28.179688 L 11.332031 -28.179688 L 17.269531 -1.078125 C 17.449219 -0.359375 17.867188 0 18.585938 0 L 21.523438 0 C 22.242188 0 22.664062 -0.359375 22.84375 -1.078125 L 28.78125 -28.179688 L 29.199219 -28.179688 L 29.199219 -1.199219 C 29.199219 -0.417969 29.617188 0 30.398438 0 L 35.972656 0 C 36.753906 0 37.171875 -0.417969 37.171875 -1.199219 L 37.171875 -46.765625 C 37.171875 -47.546875 36.753906 -47.964844 35.972656 -47.964844 Z M 28.058594 -47.964844 "/></g></g></g><g fill="#000000" fill-opacity="1"><g transform="translate(73.450372, 278.524365)"><g><path d="M 28.058594 -47.964844 C 27.339844 -47.964844 26.921875 -47.605469 26.742188 -46.886719 L 20.085938 -17.027344 L 13.429688 -46.886719 C 13.25 -47.605469 12.832031 -47.964844 12.113281 -47.964844 L 4.195312 -47.964844 C 3.417969 -47.964844 2.996094 -47.546875 2.996094 -46.765625 L 2.996094 -1.199219 C 2.996094 -0.417969 3.417969 0 4.195312 0 L 9.714844 0 C 10.492188 0 10.914062 -0.417969 10.914062 -1.199219 L 10.914062 -28.179688 L 11.332031 -28.179688 L 17.269531 -1.078125 C 17.449219 -0.359375 17.867188 0 18.585938 0 L 21.523438 0 C 22.242188 0 22.664062 -0.359375 22.84375 -1.078125 L 28.78125 -28.179688 L 29.199219 -28.179688 L 29.199219 -1.199219 C 29.199219 -0.417969 29.617188 0 30.398438 0 L 35.972656 0 C 36.753906 0 37.171875 -0.417969 37.171875 -1.199219 L 37.171875 -46.765625 C 37.171875 -47.546875 36.753906 -47.964844 35.972656 -47.964844 Z M 28.058594 -47.964844 "/></g></g></g><g fill="#000000" fill-opacity="1"><g transform="translate(113.618699, 278.524365)"><g><path d="M 31.898438 0 C 32.617188 0 32.855469 -0.359375 32.738281 -1.019531 L 22.785156 -47.125 C 22.664062 -47.726562 22.304688 -47.964844 21.765625 -47.964844 L 13.429688 -47.964844 C 12.890625 -47.964844 12.53125 -47.726562 12.410156 -47.125 L 2.457031 -1.019531 C 2.277344 -0.359375 2.578125 0 3.238281 0 L 9.652344 0 C 10.191406 0 10.492188 -0.300781 10.613281 -0.839844 L 12.230469 -9.59375 L 22.902344 -9.59375 L 24.582031 -0.839844 C 24.703125 -0.300781 25.003906 0 25.542969 0 Z M 21.40625 -16.546875 L 13.730469 -16.546875 L 17.566406 -37.472656 Z M 21.40625 -16.546875 "/></g></g></g><g fill="#000000" fill-opacity="1"><g transform="translate(148.751, 278.524365)"><g><path d="M 2.996094 -41.25 C 2.996094 -40.472656 3.417969 -40.050781 4.195312 -40.050781 L 5.695312 -40.050781 L 3.296875 -34.773438 C 3.117188 -34.355469 3.296875 -34.054688 3.777344 -34.054688 L 6.476562 -34.054688 C 6.835938 -34.054688 7.015625 -34.175781 7.195312 -34.476562 L 10.433594 -39.390625 C 10.730469 -39.871094 10.851562 -40.292969 10.851562 -40.890625 L 10.851562 -46.765625 C 10.851562 -47.546875 10.433594 -47.964844 9.652344 -47.964844 L 4.195312 -47.964844 C 3.417969 -47.964844 2.996094 -47.546875 2.996094 -46.765625 Z M 2.996094 -41.25 "/></g></g></g><g fill="#000000" fill-opacity="1"><g transform="translate(162.600088, 278.524365)"><g><path d="M 11.632812 -47.964844 C 6.054688 -47.964844 2.996094 -44.96875 2.996094 -39.332031 L 2.996094 -25.183594 C 2.996094 -24.042969 3.539062 -23.324219 4.617188 -22.964844 L 18.828125 -18.285156 L 18.828125 -10.3125 C 18.828125 -8.695312 17.988281 -7.914062 16.429688 -7.914062 L 13.550781 -7.914062 C 12.050781 -7.914062 11.152344 -8.695312 11.152344 -10.3125 L 11.152344 -14.929688 C 11.152344 -15.589844 10.851562 -15.886719 10.191406 -15.886719 L 3.957031 -15.886719 C 3.359375 -15.886719 2.996094 -15.589844 2.996094 -14.929688 L 2.996094 -8.632812 C 2.996094 -2.996094 6.054688 0 11.632812 0 L 18.347656 0 C 23.984375 0 26.980469 -2.996094 26.980469 -8.632812 L 26.980469 -22.484375 C 26.980469 -23.625 26.441406 -24.28125 25.421875 -24.703125 L 11.152344 -29.378906 L 11.152344 -37.652344 C 11.152344 -39.210938 12.050781 -40.050781 13.550781 -40.050781 L 16.429688 -40.050781 C 18.046875 -40.050781 18.828125 -39.210938 18.828125 -37.652344 L 18.828125 -32.976562 C 18.828125 -32.375 19.1875 -32.015625 19.785156 -32.015625 L 26.019531 -32.015625 C 26.679688 -32.015625 26.980469 -32.375 26.980469 -32.976562 L 26.980469 -39.332031 C 26.980469 -44.96875 23.984375 -47.964844 18.347656 -47.964844 Z M 11.632812 -47.964844 "/></g></g></g><g fill="#000000" fill-opacity="1"><g transform="translate(192.576452, 278.524365)"><g/></g></g><g fill="#000000" fill-opacity="1"><g transform="translate(207.564634, 278.524365)"><g><path d="M 11.632812 -47.964844 C 6.054688 -47.964844 2.996094 -44.96875 2.996094 -39.332031 L 2.996094 -25.183594 C 2.996094 -24.042969 3.539062 -23.324219 4.617188 -22.964844 L 18.828125 -18.285156 L 18.828125 -10.3125 C 18.828125 -8.695312 17.988281 -7.914062 16.429688 -7.914062 L 13.550781 -7.914062 C 12.050781 -7.914062 11.152344 -8.695312 11.152344 -10.3125 L 11.152344 -14.929688 C 11.152344 -15.589844 10.851562 -15.886719 10.191406 -15.886719 L 3.957031 -15.886719 C 3.359375 -15.886719 2.996094 -15.589844 2.996094 -14.929688 L 2.996094 -8.632812 C 2.996094 -2.996094 6.054688 0 11.632812 0 L 18.347656 0 C 23.984375 0 26.980469 -2.996094 26.980469 -8.632812 L 26.980469 -22.484375 C 26.980469 -23.625 26.441406 -24.28125 25.421875 -24.703125 L 11.152344 -29.378906 L 11.152344 -37.652344 C 11.152344 -39.210938 12.050781 -40.050781 13.550781 -40.050781 L 16.429688 -40.050781 C 18.046875 -40.050781 18.828125 -39.210938 18.828125 -37.652344 L 18.828125 -32.976562 C 18.828125 -32.375 19.1875 -32.015625 19.785156 -32.015625 L 26.019531 -32.015625 C 26.679688 -32.015625 26.980469 -32.375 26.980469 -32.976562 L 26.980469 -39.332031 C 26.980469 -44.96875 23.984375 -47.964844 18.347656 -47.964844 Z M 11.632812 -47.964844 "/></g></g></g><g fill="#000000" fill-opacity="1"><g transform="translate(237.540998, 278.524365)"><g><path d="M 28.058594 -47.964844 C 27.339844 -47.964844 26.921875 -47.605469 26.742188 -46.886719 L 20.085938 -17.027344 L 13.429688 -46.886719 C 13.25 -47.605469 12.832031 -47.964844 12.113281 -47.964844 L 4.195312 -47.964844 C 3.417969 -47.964844 2.996094 -47.546875 2.996094 -46.765625 L 2.996094 -1.199219 C 2.996094 -0.417969 3.417969 0 4.195312 0 L 9.714844 0 C 10.492188 0 10.914062 -0.417969 10.914062 -1.199219 L 10.914062 -28.179688 L 11.332031 -28.179688 L 17.269531 -1.078125 C 17.449219 -0.359375 17.867188 0 18.585938 0 L 21.523438 0 C 22.242188 0 22.664062 -0.359375 22.84375 -1.078125 L 28.78125 -28.179688 L 29.199219 -28.179688 L 29.199219 -1.199219 C 29.199219 -0.417969 29.617188 0 30.398438 0 L 35.972656 0 C 36.753906 0 37.171875 -0.417969 37.171875 -1.199219 L 37.171875 -46.765625 C 37.171875 -47.546875 36.753906 -47.964844 35.972656 -47.964844 Z M 28.058594 -47.964844 "/></g></g></g><g fill="#000000" fill-opacity="1"><g transform="translate(277.709325, 278.524365)"><g><path d="M 31.898438 0 C 32.617188 0 32.855469 -0.359375 32.738281 -1.019531 L 22.785156 -47.125 C 22.664062 -47.726562 22.304688 -47.964844 21.765625 -47.964844 L 13.429688 -47.964844 C 12.890625 -47.964844 12.53125 -47.726562 12.410156 -47.125 L 2.457031 -1.019531 C 2.277344 -0.359375 2.578125 0 3.238281 0 L 9.652344 0 C 10.191406 0 10.492188 -0.300781 10.613281 -0.839844 L 12.230469 -9.59375 L 22.902344 -9.59375 L 24.582031 -0.839844 C 24.703125 -0.300781 25.003906 0 25.542969 0 Z M 21.40625 -16.546875 L 13.730469 -16.546875 L 17.566406 -37.472656 Z M 21.40625 -16.546875 "/></g></g></g><g fill="#000000" fill-opacity="1"><g transform="translate(312.841627, 278.524365)"><g><path d="M 11.152344 -7.914062 L 25.421875 -7.914062 C 26.082031 -7.914062 26.382812 -7.554688 26.382812 -6.953125 L 26.382812 -0.960938 C 26.382812 -0.300781 26.082031 0 25.421875 0 L 3.957031 0 C 3.359375 0 2.996094 -0.300781 2.996094 -0.960938 L 2.996094 -47.007812 C 2.996094 -47.605469 3.359375 -47.964844 3.957031 -47.964844 L 10.191406 -47.964844 C 10.851562 -47.964844 11.152344 -47.605469 11.152344 -47.007812 Z M 11.152344 -7.914062 "/></g></g></g><g fill="#000000" fill-opacity="1"><g transform="translate(342.218465, 278.524365)"><g><path d="M 11.152344 -7.914062 L 25.421875 -7.914062 C 26.082031 -7.914062 26.382812 -7.554688 26.382812 -6.953125 L 26.382812 -0.960938 C 26.382812 -0.300781 26.082031 0 25.421875 0 L 3.957031 0 C 3.359375 0 2.996094 -0.300781 2.996094 -0.960938 L 2.996094 -47.007812 C 2.996094 -47.605469 3.359375 -47.964844 3.957031 -47.964844 L 10.191406 -47.964844 C 10.851562 -47.964844 11.152344 -47.605469 11.152344 -47.007812 Z M 11.152344 -7.914062 "/></g></g></g><g fill="#000000" fill-opacity="1"><g transform="translate(127.835763, 314.424382)"><g><path d="M 11.71875 -2.0625 L 11.71875 0 L 1.78125 0 L 1.78125 -13.25 L 11.453125 -13.25 L 11.453125 -11.1875 L 4.234375 -11.1875 L 4.234375 -7.75 L 10.640625 -7.75 L 10.640625 -5.71875 L 4.234375 -5.71875 L 4.234375 -2.0625 Z M 11.71875 -2.0625 "/></g></g></g><g fill="#000000" fill-opacity="1"><g transform="translate(145.63601, 314.424382)"><g><path d="M 13.5625 -13.25 L 13.5625 0 L 11.53125 0 L 4.21875 -8.96875 L 4.21875 0 L 1.78125 0 L 1.78125 -13.25 L 3.8125 -13.25 L 11.109375 -4.28125 L 11.109375 -13.25 Z M 13.5625 -13.25 "/></g></g></g><g fill="#000000" fill-opacity="1"><g transform="translate(166.087346, 314.424382)"><g><path d="M 10.828125 -6.78125 L 13.15625 -6.78125 L 13.15625 -1.5 C 12.476562 -0.957031 11.679688 -0.539062 10.765625 -0.25 C 9.859375 0.0390625 8.925781 0.1875 7.96875 0.1875 C 6.625 0.1875 5.40625 -0.101562 4.3125 -0.6875 C 3.226562 -1.28125 2.375 -2.09375 1.75 -3.125 C 1.132812 -4.15625 0.828125 -5.320312 0.828125 -6.625 C 0.828125 -7.925781 1.132812 -9.09375 1.75 -10.125 C 2.375 -11.164062 3.234375 -11.976562 4.328125 -12.5625 C 5.421875 -13.15625 6.648438 -13.453125 8.015625 -13.453125 C 9.117188 -13.453125 10.125 -13.265625 11.03125 -12.890625 C 11.945312 -12.523438 12.710938 -11.988281 13.328125 -11.28125 L 11.78125 -9.765625 C 10.769531 -10.773438 9.550781 -11.28125 8.125 -11.28125 C 7.1875 -11.28125 6.351562 -11.082031 5.625 -10.6875 C 4.90625 -10.300781 4.335938 -9.753906 3.921875 -9.046875 C 3.515625 -8.335938 3.3125 -7.53125 3.3125 -6.625 C 3.3125 -5.738281 3.515625 -4.941406 3.921875 -4.234375 C 4.335938 -3.535156 4.90625 -2.984375 5.625 -2.578125 C 6.351562 -2.171875 7.179688 -1.96875 8.109375 -1.96875 C 9.140625 -1.96875 10.046875 -2.195312 10.828125 -2.65625 Z M 10.828125 -6.78125 "/></g></g></g><g fill="#000000" fill-opacity="1"><g transform="translate(185.8191, 314.424382)"><g><path d="M 1.78125 -13.25 L 4.234375 -13.25 L 4.234375 0 L 1.78125 0 Z M 1.78125 -13.25 "/></g></g></g><g fill="#000000" fill-opacity="1"><g transform="translate(196.972686, 314.424382)"><g><path d="M 13.5625 -13.25 L 13.5625 0 L 11.53125 0 L 4.21875 -8.96875 L 4.21875 0 L 1.78125 0 L 1.78125 -13.25 L 3.8125 -13.25 L 11.109375 -4.28125 L 11.109375 -13.25 Z M 13.5625 -13.25 "/></g></g></g><g fill="#000000" fill-opacity="1"><g transform="translate(217.424027, 314.424382)"><g><path d="M 11.71875 -2.0625 L 11.71875 0 L 1.78125 0 L 1.78125 -13.25 L 11.453125 -13.25 L 11.453125 -11.1875 L 4.234375 -11.1875 L 4.234375 -7.75 L 10.640625 -7.75 L 10.640625 -5.71875 L 4.234375 -5.71875 L 4.234375 -2.0625 Z M 11.71875 -2.0625 "/></g></g></g><g fill="#000000" fill-opacity="1"><g transform="translate(235.224278, 314.424382)"><g><path d="M 5.890625 0.1875 C 4.867188 0.1875 3.878906 0.0390625 2.921875 -0.25 C 1.972656 -0.539062 1.21875 -0.925781 0.65625 -1.40625 L 1.515625 -3.3125 C 2.054688 -2.882812 2.722656 -2.535156 3.515625 -2.265625 C 4.304688 -1.992188 5.097656 -1.859375 5.890625 -1.859375 C 6.867188 -1.859375 7.601562 -2.015625 8.09375 -2.328125 C 8.582031 -2.640625 8.828125 -3.054688 8.828125 -3.578125 C 8.828125 -3.953125 8.691406 -4.265625 8.421875 -4.515625 C 8.148438 -4.765625 7.804688 -4.957031 7.390625 -5.09375 C 6.972656 -5.226562 6.40625 -5.382812 5.6875 -5.5625 C 4.675781 -5.800781 3.859375 -6.039062 3.234375 -6.28125 C 2.609375 -6.519531 2.070312 -6.894531 1.625 -7.40625 C 1.175781 -7.925781 0.953125 -8.617188 0.953125 -9.484375 C 0.953125 -10.222656 1.148438 -10.890625 1.546875 -11.484375 C 1.941406 -12.085938 2.539062 -12.566406 3.34375 -12.921875 C 4.144531 -13.273438 5.125 -13.453125 6.28125 -13.453125 C 7.09375 -13.453125 7.890625 -13.347656 8.671875 -13.140625 C 9.453125 -12.941406 10.128906 -12.648438 10.703125 -12.265625 L 9.921875 -10.359375 C 9.335938 -10.703125 8.726562 -10.960938 8.09375 -11.140625 C 7.46875 -11.316406 6.859375 -11.40625 6.265625 -11.40625 C 5.296875 -11.40625 4.570312 -11.238281 4.09375 -10.90625 C 3.625 -10.582031 3.390625 -10.144531 3.390625 -9.59375 C 3.390625 -9.21875 3.523438 -8.910156 3.796875 -8.671875 C 4.066406 -8.429688 4.410156 -8.238281 4.828125 -8.09375 C 5.242188 -7.957031 5.8125 -7.800781 6.53125 -7.625 C 7.519531 -7.40625 8.328125 -7.171875 8.953125 -6.921875 C 9.585938 -6.671875 10.128906 -6.289062 10.578125 -5.78125 C 11.023438 -5.28125 11.25 -4.601562 11.25 -3.75 C 11.25 -3.019531 11.050781 -2.359375 10.65625 -1.765625 C 10.257812 -1.171875 9.65625 -0.695312 8.84375 -0.34375 C 8.03125 0.0078125 7.046875 0.1875 5.890625 0.1875 Z M 5.890625 0.1875 "/></g></g></g></svg>