<svg xmlns="http://www.w3.org/2000/svg" xmlns:xlink="http://www.w3.org/1999/xlink" width="500" zoomAndPan="magnify" viewBox="0 0 375 374.999991" height="500" preserveAspectRatio="xMidYMid meet" version="1.0"><defs><g/><clipPath id="0f6019de5d"><path d="M 113.273438 37.5 L 261.746094 37.5 L 261.746094 187.097656 L 113.273438 187.097656 Z M 113.273438 37.5 " clip-rule="nonzero"/></clipPath></defs><g clip-path="url(#0f6019de5d)"><path fill="#ff1616" d="M 234.160156 37.5 C 230.449219 37.5 226.886719 38.210938 223.605469 39.636719 L 223.460938 39.636719 L 152.988281 70.410156 C 150.847656 71.410156 149.847656 73.832031 150.847656 76.109375 C 151.5625 77.675781 153.128906 78.675781 154.839844 78.675781 C 155.410156 78.675781 155.984375 78.53125 156.554688 78.246094 L 208.480469 55.59375 C 207.339844 58.585938 206.769531 61.863281 206.769531 65.28125 C 206.769531 80.667969 219.183594 93.066406 234.304688 93.066406 C 249.425781 93.066406 261.691406 80.667969 261.691406 65.28125 C 261.691406 49.894531 249.28125 37.5 234.160156 37.5 Z M 234.160156 46.046875 C 244.574219 46.046875 253.132812 54.738281 253.132812 65.28125 C 253.132812 75.824219 244.574219 84.515625 234.160156 84.515625 C 223.746094 84.515625 215.1875 75.824219 215.1875 65.28125 C 215.1875 54.738281 223.746094 46.046875 234.160156 46.046875 Z M 234.015625 59.441406 C 233.632812 59.441406 233.253906 59.480469 232.875 59.554688 C 232.5 59.628906 232.132812 59.738281 231.777344 59.886719 C 231.425781 60.03125 231.085938 60.214844 230.765625 60.425781 C 230.449219 60.640625 230.152344 60.882812 229.882812 61.152344 C 229.609375 61.421875 229.367188 61.71875 229.152344 62.039062 C 228.941406 62.355469 228.761719 62.691406 228.613281 63.046875 C 228.464844 63.402344 228.355469 63.765625 228.28125 64.144531 C 228.207031 64.519531 228.167969 64.898438 228.167969 65.28125 C 228.167969 65.667969 228.207031 66.046875 228.28125 66.421875 C 228.355469 66.796875 228.464844 67.164062 228.613281 67.519531 C 228.761719 67.871094 228.941406 68.207031 229.152344 68.527344 C 229.367188 68.847656 229.609375 69.140625 229.882812 69.414062 C 230.152344 69.683594 230.449219 69.925781 230.765625 70.140625 C 231.085938 70.351562 231.425781 70.53125 231.777344 70.679688 C 232.132812 70.824219 232.5 70.9375 232.875 71.011719 C 233.253906 71.085938 233.632812 71.125 234.015625 71.125 C 234.402344 71.125 234.78125 71.085938 235.15625 71.011719 C 235.535156 70.9375 235.898438 70.824219 236.253906 70.679688 C 236.609375 70.53125 236.945312 70.351562 237.265625 70.140625 C 237.585938 69.925781 237.878906 69.683594 238.152344 69.414062 C 238.421875 69.140625 238.664062 68.847656 238.878906 68.527344 C 239.09375 68.207031 239.273438 67.871094 239.417969 67.519531 C 239.566406 67.164062 239.675781 66.796875 239.753906 66.421875 C 239.828125 66.046875 239.863281 65.667969 239.863281 65.28125 C 239.863281 64.898438 239.828125 64.519531 239.753906 64.144531 C 239.675781 63.765625 239.566406 63.402344 239.417969 63.046875 C 239.273438 62.691406 239.09375 62.355469 238.878906 62.039062 C 238.664062 61.71875 238.421875 61.421875 238.152344 61.152344 C 237.878906 60.882812 237.585938 60.640625 237.265625 60.425781 C 236.945312 60.214844 236.609375 60.03125 236.253906 59.886719 C 235.898438 59.738281 235.535156 59.628906 235.15625 59.554688 C 234.78125 59.480469 234.402344 59.441406 234.015625 59.441406 Z M 135.15625 80.953125 C 123.171875 80.953125 113.328125 90.785156 113.328125 102.894531 C 113.328125 108.308594 115.324219 113.296875 118.605469 117.144531 C 118.746094 117.285156 118.75 117.425781 118.890625 117.425781 L 146.28125 146.492188 C 147.136719 147.347656 148.28125 147.777344 149.421875 147.777344 C 150.421875 147.777344 151.5625 147.347656 152.417969 146.636719 C 154.128906 145.066406 154.269531 142.363281 152.558594 140.652344 L 137.4375 124.691406 C 148.28125 123.554688 156.839844 114.152344 156.839844 102.894531 C 156.839844 90.785156 147.140625 80.953125 135.15625 80.953125 Z M 135.15625 89.503906 C 142.429688 89.503906 148.277344 95.488281 148.277344 102.894531 C 148.277344 110.304688 142.429688 116.289062 135.15625 116.289062 C 131.589844 116.289062 128.308594 114.863281 125.882812 112.441406 L 125.597656 112.15625 C 123.3125 109.734375 121.886719 106.457031 121.886719 102.894531 C 121.886719 95.488281 127.878906 89.503906 135.15625 89.503906 Z M 251.425781 93.753906 C 249.457031 93.894531 247.675781 95.34375 247.425781 97.339844 L 243.859375 120.847656 C 236.441406 106.171875 221.179688 96.199219 203.773438 96.199219 C 178.953125 96.339844 158.835938 116.574219 158.835938 141.648438 C 158.835938 166.722656 179.09375 187.097656 203.917969 187.097656 C 225.601562 187.097656 243.859375 171.425781 248 150.484375 L 248 150.195312 C 248.140625 149.199219 248.425781 148.0625 248.425781 147.0625 L 255.84375 98.621094 C 256.273438 96.34375 254.5625 94.0625 252.277344 93.777344 C 251.992188 93.742188 251.707031 93.734375 251.425781 93.753906 Z M 135.15625 98.621094 C 134.875 98.621094 134.597656 98.648438 134.320312 98.703125 C 134.046875 98.757812 133.777344 98.839844 133.519531 98.949219 C 133.257812 99.054688 133.011719 99.1875 132.777344 99.34375 C 132.542969 99.5 132.328125 99.675781 132.128906 99.875 C 131.929688 100.074219 131.753906 100.289062 131.597656 100.523438 C 131.441406 100.753906 131.308594 101 131.203125 101.261719 C 131.09375 101.519531 131.011719 101.789062 130.957031 102.0625 C 130.902344 102.335938 130.875 102.617188 130.875 102.894531 C 130.875 103.175781 130.902344 103.453125 130.957031 103.730469 C 131.011719 104.003906 131.09375 104.273438 131.203125 104.53125 C 131.308594 104.792969 131.441406 105.039062 131.597656 105.269531 C 131.753906 105.503906 131.929688 105.71875 132.128906 105.917969 C 132.328125 106.117188 132.542969 106.292969 132.777344 106.449219 C 133.011719 106.605469 133.257812 106.738281 133.519531 106.84375 C 133.777344 106.953125 134.046875 107.035156 134.320312 107.089844 C 134.597656 107.144531 134.875 107.171875 135.15625 107.171875 C 135.4375 107.171875 135.714844 107.144531 135.992188 107.089844 C 136.265625 107.035156 136.535156 106.953125 136.792969 106.84375 C 137.054688 106.738281 137.300781 106.605469 137.535156 106.449219 C 137.765625 106.292969 137.984375 106.117188 138.183594 105.917969 C 138.378906 105.71875 138.558594 105.503906 138.714844 105.269531 C 138.871094 105.039062 139.003906 104.792969 139.109375 104.53125 C 139.21875 104.273438 139.296875 104.003906 139.351562 103.730469 C 139.40625 103.453125 139.433594 103.175781 139.433594 102.894531 C 139.433594 102.617188 139.40625 102.335938 139.351562 102.0625 C 139.296875 101.789062 139.21875 101.519531 139.109375 101.261719 C 139.003906 101 138.871094 100.753906 138.714844 100.523438 C 138.558594 100.289062 138.378906 100.074219 138.183594 99.875 C 137.984375 99.675781 137.765625 99.5 137.535156 99.34375 C 137.300781 99.1875 137.054688 99.054688 136.792969 98.949219 C 136.535156 98.839844 136.265625 98.757812 135.992188 98.703125 C 135.714844 98.648438 135.4375 98.621094 135.15625 98.621094 Z M 203.773438 104.746094 C 223.890625 104.746094 240.292969 121.417969 240.292969 141.648438 C 240.292969 143.074219 240.152344 144.5 240.011719 145.78125 L 239.582031 148.914062 C 236.300781 165.726562 221.464844 178.550781 203.773438 178.550781 C 183.660156 178.550781 167.253906 162.023438 167.253906 141.648438 C 167.253906 121.273438 183.660156 104.746094 203.773438 104.746094 Z M 204.058594 114.007812 C 201.632812 114.007812 199.777344 115.859375 199.777344 118.28125 L 199.777344 126.40625 C 198.496094 126.691406 197.351562 127.257812 196.210938 127.828125 L 190.648438 122.128906 C 188.9375 120.421875 186.226562 120.421875 184.65625 122.128906 C 182.945312 123.839844 182.945312 126.546875 184.65625 128.113281 L 190.363281 133.8125 C 189.792969 134.953125 189.222656 136.09375 188.9375 137.375 L 180.949219 137.375 C 178.523438 137.375 176.667969 139.226562 176.667969 141.648438 C 176.667969 144.070312 178.523438 145.921875 180.949219 145.921875 L 188.9375 145.921875 C 189.222656 147.203125 189.792969 148.34375 190.363281 149.484375 L 184.65625 155.183594 C 182.945312 156.894531 182.945312 159.601562 184.65625 161.167969 C 185.511719 162.023438 186.511719 162.449219 187.652344 162.449219 C 188.792969 162.449219 189.792969 162.023438 190.648438 161.167969 L 196.210938 155.46875 C 197.351562 156.039062 198.496094 156.609375 199.777344 156.894531 L 199.777344 165.015625 C 199.777344 167.4375 201.632812 169.289062 204.058594 169.289062 C 206.484375 169.289062 208.339844 167.4375 208.339844 165.015625 L 208.339844 156.894531 C 209.621094 156.609375 210.761719 156.039062 211.90625 155.46875 L 217.46875 161.167969 C 218.324219 162.023438 219.464844 162.449219 220.464844 162.449219 C 221.605469 162.449219 222.601562 162.023438 223.460938 161.167969 C 225.171875 159.460938 225.171875 156.75 223.460938 155.183594 L 217.753906 149.484375 C 218.324219 148.34375 218.894531 147.203125 219.179688 145.921875 L 227.171875 145.921875 C 229.597656 145.921875 231.449219 144.070312 231.449219 141.648438 C 231.449219 139.226562 229.597656 137.375 227.171875 137.375 L 219.179688 137.375 C 218.894531 136.09375 218.324219 134.953125 217.753906 133.8125 L 223.460938 128.113281 C 225.171875 126.402344 225.171875 123.699219 223.460938 122.128906 C 221.746094 120.421875 219.039062 120.421875 217.46875 122.128906 L 211.90625 127.828125 C 210.761719 127.257812 209.621094 126.691406 208.339844 126.40625 L 208.339844 118.28125 C 208.339844 115.859375 206.484375 114.007812 204.058594 114.007812 Z M 203.773438 134.382812 C 207.769531 134.382812 211.191406 137.800781 211.191406 141.789062 C 211.191406 145.78125 207.910156 149.199219 203.773438 149.199219 C 199.78125 149.199219 196.355469 145.78125 196.355469 141.789062 C 196.355469 137.800781 199.636719 134.382812 203.773438 134.382812 Z M 203.773438 134.382812 " fill-opacity="1" fill-rule="nonzero"/></g><g fill="#000000" fill-opacity="1"><g transform="translate(90.446481, 242.468374)"><g><path d="M 25.585938 -44.675781 C 25.585938 -45.242188 25.355469 -45.585938 24.671875 -45.585938 L 3.703125 -45.585938 C 3.191406 -45.585938 2.847656 -45.242188 2.847656 -44.675781 L 2.847656 -0.910156 C 2.847656 -0.34375 3.191406 0 3.703125 0 L 24.671875 0 C 25.355469 0 25.585938 -0.34375 25.585938 -0.910156 L 25.585938 -6.609375 C 25.585938 -7.238281 25.355469 -7.523438 24.671875 -7.523438 L 10.429688 -7.523438 L 10.429688 -19.03125 L 21.3125 -19.03125 C 21.882812 -19.03125 22.222656 -19.375 22.222656 -20 L 22.222656 -25.640625 C 22.222656 -26.269531 21.882812 -26.609375 21.3125 -26.609375 L 10.429688 -26.609375 L 10.429688 -38.007812 L 24.671875 -38.007812 C 25.355469 -38.007812 25.585938 -38.40625 25.585938 -38.976562 Z M 25.585938 -44.675781 "/></g></g></g><g fill="#000000" fill-opacity="1"><g transform="translate(118.878597, 242.468374)"><g><path d="M 26.667969 -45.585938 C 25.984375 -45.585938 25.585938 -45.242188 25.414062 -44.558594 L 19.089844 -16.183594 L 12.765625 -44.558594 C 12.59375 -45.242188 12.195312 -45.585938 11.511719 -45.585938 L 3.988281 -45.585938 C 3.246094 -45.585938 2.847656 -45.1875 2.847656 -44.445312 L 2.847656 -1.140625 C 2.847656 -0.398438 3.246094 0 3.988281 0 L 9.230469 0 C 9.972656 0 10.371094 -0.398438 10.371094 -1.140625 L 10.371094 -26.78125 L 10.769531 -26.78125 L 16.410156 -1.027344 C 16.582031 -0.34375 16.980469 0 17.664062 0 L 20.457031 0 C 21.140625 0 21.539062 -0.34375 21.710938 -1.027344 L 27.351562 -26.78125 L 27.75 -26.78125 L 27.75 -1.140625 C 27.75 -0.398438 28.148438 0 28.890625 0 L 34.1875 0 C 34.929688 0 35.328125 -0.398438 35.328125 -1.140625 L 35.328125 -44.445312 C 35.328125 -45.1875 34.929688 -45.585938 34.1875 -45.585938 Z M 26.667969 -45.585938 "/></g></g></g><g fill="#000000" fill-opacity="1"><g transform="translate(157.053988, 242.468374)"><g><path d="M 26.667969 -45.585938 C 25.984375 -45.585938 25.585938 -45.242188 25.414062 -44.558594 L 19.089844 -16.183594 L 12.765625 -44.558594 C 12.59375 -45.242188 12.195312 -45.585938 11.511719 -45.585938 L 3.988281 -45.585938 C 3.246094 -45.585938 2.847656 -45.1875 2.847656 -44.445312 L 2.847656 -1.140625 C 2.847656 -0.398438 3.246094 0 3.988281 0 L 9.230469 0 C 9.972656 0 10.371094 -0.398438 10.371094 -1.140625 L 10.371094 -26.78125 L 10.769531 -26.78125 L 16.410156 -1.027344 C 16.582031 -0.34375 16.980469 0 17.664062 0 L 20.457031 0 C 21.140625 0 21.539062 -0.34375 21.710938 -1.027344 L 27.351562 -26.78125 L 27.75 -26.78125 L 27.75 -1.140625 C 27.75 -0.398438 28.148438 0 28.890625 0 L 34.1875 0 C 34.929688 0 35.328125 -0.398438 35.328125 -1.140625 L 35.328125 -44.445312 C 35.328125 -45.1875 34.929688 -45.585938 34.1875 -45.585938 Z M 26.667969 -45.585938 "/></g></g></g><g fill="#000000" fill-opacity="1"><g transform="translate(195.229379, 242.468374)"><g><path d="M 30.316406 0 C 31 0 31.226562 -0.34375 31.113281 -0.96875 L 21.652344 -44.789062 C 21.539062 -45.359375 21.199219 -45.585938 20.683594 -45.585938 L 12.765625 -45.585938 C 12.25 -45.585938 11.910156 -45.359375 11.796875 -44.789062 L 2.335938 -0.96875 C 2.164062 -0.34375 2.449219 0 3.078125 0 L 9.175781 0 C 9.6875 0 9.972656 -0.285156 10.085938 -0.796875 L 11.625 -9.117188 L 21.765625 -9.117188 L 23.363281 -0.796875 C 23.476562 -0.285156 23.761719 0 24.273438 0 Z M 20.34375 -15.726562 L 13.050781 -15.726562 L 16.695312 -35.613281 Z M 20.34375 -15.726562 "/></g></g></g><g fill="#000000" fill-opacity="1"><g transform="translate(228.618605, 242.468374)"><g><path d="M 2.847656 -39.203125 C 2.847656 -38.464844 3.246094 -38.0625 3.988281 -38.0625 L 5.414062 -38.0625 L 3.132812 -33.050781 C 2.964844 -32.652344 3.132812 -32.367188 3.589844 -32.367188 L 6.152344 -32.367188 C 6.496094 -32.367188 6.667969 -32.480469 6.835938 -32.765625 L 9.914062 -37.4375 C 10.199219 -37.894531 10.3125 -38.292969 10.3125 -38.863281 L 10.3125 -44.445312 C 10.3125 -45.1875 9.914062 -45.585938 9.175781 -45.585938 L 3.988281 -45.585938 C 3.246094 -45.585938 2.847656 -45.1875 2.847656 -44.445312 Z M 2.847656 -39.203125 "/></g></g></g><g fill="#000000" fill-opacity="1"><g transform="translate(241.780575, 242.468374)"><g><path d="M 11.054688 -45.585938 C 5.753906 -45.585938 2.847656 -42.738281 2.847656 -37.378906 L 2.847656 -23.933594 C 2.847656 -22.851562 3.363281 -22.167969 4.386719 -21.824219 L 17.890625 -17.378906 L 17.890625 -9.800781 C 17.890625 -8.261719 17.09375 -7.523438 15.613281 -7.523438 L 12.878906 -7.523438 C 11.453125 -7.523438 10.597656 -8.261719 10.597656 -9.800781 L 10.597656 -14.1875 C 10.597656 -14.816406 10.3125 -15.101562 9.6875 -15.101562 L 3.761719 -15.101562 C 3.191406 -15.101562 2.847656 -14.816406 2.847656 -14.1875 L 2.847656 -8.207031 C 2.847656 -2.847656 5.753906 0 11.054688 0 L 17.4375 0 C 22.792969 0 25.640625 -2.847656 25.640625 -8.207031 L 25.640625 -21.367188 C 25.640625 -22.449219 25.128906 -23.078125 24.160156 -23.476562 L 10.597656 -27.921875 L 10.597656 -35.785156 C 10.597656 -37.265625 11.453125 -38.0625 12.878906 -38.0625 L 15.613281 -38.0625 C 17.152344 -38.0625 17.890625 -37.265625 17.890625 -35.785156 L 17.890625 -31.339844 C 17.890625 -30.769531 18.234375 -30.429688 18.804688 -30.429688 L 24.730469 -30.429688 C 25.355469 -30.429688 25.640625 -30.769531 25.640625 -31.339844 L 25.640625 -37.378906 C 25.640625 -42.738281 22.792969 -45.585938 17.4375 -45.585938 Z M 11.054688 -45.585938 "/></g></g></g><g fill="#000000" fill-opacity="1"><g transform="translate(270.273815, 242.468374)"><g/></g></g><g fill="#000000" fill-opacity="1"><g transform="translate(109.532924, 296.458753)"><g><path d="M 11.054688 -45.585938 C 5.753906 -45.585938 2.847656 -42.738281 2.847656 -37.378906 L 2.847656 -23.933594 C 2.847656 -22.851562 3.363281 -22.167969 4.386719 -21.824219 L 17.890625 -17.378906 L 17.890625 -9.800781 C 17.890625 -8.261719 17.09375 -7.523438 15.613281 -7.523438 L 12.878906 -7.523438 C 11.453125 -7.523438 10.597656 -8.261719 10.597656 -9.800781 L 10.597656 -14.1875 C 10.597656 -14.816406 10.3125 -15.101562 9.6875 -15.101562 L 3.761719 -15.101562 C 3.191406 -15.101562 2.847656 -14.816406 2.847656 -14.1875 L 2.847656 -8.207031 C 2.847656 -2.847656 5.753906 0 11.054688 0 L 17.4375 0 C 22.792969 0 25.640625 -2.847656 25.640625 -8.207031 L 25.640625 -21.367188 C 25.640625 -22.449219 25.128906 -23.078125 24.160156 -23.476562 L 10.597656 -27.921875 L 10.597656 -35.785156 C 10.597656 -37.265625 11.453125 -38.0625 12.878906 -38.0625 L 15.613281 -38.0625 C 17.152344 -38.0625 17.890625 -37.265625 17.890625 -35.785156 L 17.890625 -31.339844 C 17.890625 -30.769531 18.234375 -30.429688 18.804688 -30.429688 L 24.730469 -30.429688 C 25.355469 -30.429688 25.640625 -30.769531 25.640625 -31.339844 L 25.640625 -37.378906 C 25.640625 -42.738281 22.792969 -45.585938 17.4375 -45.585938 Z M 11.054688 -45.585938 "/></g></g></g><g fill="#000000" fill-opacity="1"><g transform="translate(138.022022, 296.458753)"><g><path d="M 26.667969 -45.585938 C 25.984375 -45.585938 25.585938 -45.242188 25.414062 -44.558594 L 19.089844 -16.183594 L 12.765625 -44.558594 C 12.59375 -45.242188 12.195312 -45.585938 11.511719 -45.585938 L 3.988281 -45.585938 C 3.246094 -45.585938 2.847656 -45.1875 2.847656 -44.445312 L 2.847656 -1.140625 C 2.847656 -0.398438 3.246094 0 3.988281 0 L 9.230469 0 C 9.972656 0 10.371094 -0.398438 10.371094 -1.140625 L 10.371094 -26.78125 L 10.769531 -26.78125 L 16.410156 -1.027344 C 16.582031 -0.34375 16.980469 0 17.664062 0 L 20.457031 0 C 21.140625 0 21.539062 -0.34375 21.710938 -1.027344 L 27.351562 -26.78125 L 27.75 -26.78125 L 27.75 -1.140625 C 27.75 -0.398438 28.148438 0 28.890625 0 L 34.1875 0 C 34.929688 0 35.328125 -0.398438 35.328125 -1.140625 L 35.328125 -44.445312 C 35.328125 -45.1875 34.929688 -45.585938 34.1875 -45.585938 Z M 26.667969 -45.585938 "/></g></g></g><g fill="#000000" fill-opacity="1"><g transform="translate(176.197413, 296.458753)"><g><path d="M 30.316406 0 C 31 0 31.226562 -0.34375 31.113281 -0.96875 L 21.652344 -44.789062 C 21.539062 -45.359375 21.199219 -45.585938 20.683594 -45.585938 L 12.765625 -45.585938 C 12.25 -45.585938 11.910156 -45.359375 11.796875 -44.789062 L 2.335938 -0.96875 C 2.164062 -0.34375 2.449219 0 3.078125 0 L 9.175781 0 C 9.6875 0 9.972656 -0.285156 10.085938 -0.796875 L 11.625 -9.117188 L 21.765625 -9.117188 L 23.363281 -0.796875 C 23.476562 -0.285156 23.761719 0 24.273438 0 Z M 20.34375 -15.726562 L 13.050781 -15.726562 L 16.695312 -35.613281 Z M 20.34375 -15.726562 "/></g></g></g><g fill="#000000" fill-opacity="1"><g transform="translate(209.586639, 296.458753)"><g><path d="M 10.597656 -7.523438 L 24.160156 -7.523438 C 24.789062 -7.523438 25.070312 -7.179688 25.070312 -6.609375 L 25.070312 -0.910156 C 25.070312 -0.285156 24.789062 0 24.160156 0 L 3.761719 0 C 3.191406 0 2.847656 -0.285156 2.847656 -0.910156 L 2.847656 -44.675781 C 2.847656 -45.242188 3.191406 -45.585938 3.761719 -45.585938 L 9.6875 -45.585938 C 10.3125 -45.585938 10.597656 -45.242188 10.597656 -44.675781 Z M 10.597656 -7.523438 "/></g></g></g><g fill="#000000" fill-opacity="1"><g transform="translate(237.505956, 296.458753)"><g><path d="M 10.597656 -7.523438 L 24.160156 -7.523438 C 24.789062 -7.523438 25.070312 -7.179688 25.070312 -6.609375 L 25.070312 -0.910156 C 25.070312 -0.285156 24.789062 0 24.160156 0 L 3.761719 0 C 3.191406 0 2.847656 -0.285156 2.847656 -0.910156 L 2.847656 -44.675781 C 2.847656 -45.242188 3.191406 -45.585938 3.761719 -45.585938 L 9.6875 -45.585938 C 10.3125 -45.585938 10.597656 -45.242188 10.597656 -44.675781 Z M 10.597656 -7.523438 "/></g></g></g><g fill="#000000" fill-opacity="1"><g transform="translate(130.795977, 323.99381)"><g><path d="M 11.140625 -1.96875 L 11.140625 0 L 1.6875 0 L 1.6875 -12.59375 L 10.890625 -12.59375 L 10.890625 -10.640625 L 4.03125 -10.640625 L 4.03125 -7.359375 L 10.109375 -7.359375 L 10.109375 -5.4375 L 4.03125 -5.4375 L 4.03125 -1.96875 Z M 11.140625 -1.96875 "/></g></g></g><g fill="#000000" fill-opacity="1"><g transform="translate(147.713071, 323.99381)"><g><path d="M 12.890625 -12.59375 L 12.890625 0 L 10.96875 0 L 4.015625 -8.53125 L 4.015625 0 L 1.6875 0 L 1.6875 -12.59375 L 3.625 -12.59375 L 10.5625 -4.0625 L 10.5625 -12.59375 Z M 12.890625 -12.59375 "/></g></g></g><g fill="#000000" fill-opacity="1"><g transform="translate(167.149722, 323.99381)"><g><path d="M 10.296875 -6.4375 L 12.515625 -6.4375 L 12.515625 -1.421875 C 11.859375 -0.898438 11.097656 -0.5 10.234375 -0.21875 C 9.378906 0.0507812 8.492188 0.1875 7.578125 0.1875 C 6.296875 0.1875 5.140625 -0.09375 4.109375 -0.65625 C 3.078125 -1.21875 2.265625 -1.988281 1.671875 -2.96875 C 1.085938 -3.957031 0.796875 -5.066406 0.796875 -6.296875 C 0.796875 -7.535156 1.085938 -8.644531 1.671875 -9.625 C 2.265625 -10.613281 3.078125 -11.382812 4.109375 -11.9375 C 5.148438 -12.5 6.316406 -12.78125 7.609375 -12.78125 C 8.671875 -12.78125 9.632812 -12.601562 10.5 -12.25 C 11.363281 -11.90625 12.085938 -11.398438 12.671875 -10.734375 L 11.203125 -9.28125 C 10.234375 -10.25 9.070312 -10.734375 7.71875 -10.734375 C 6.832031 -10.734375 6.039062 -10.546875 5.34375 -10.171875 C 4.65625 -9.796875 4.117188 -9.269531 3.734375 -8.59375 C 3.347656 -7.925781 3.15625 -7.160156 3.15625 -6.296875 C 3.15625 -5.460938 3.347656 -4.707031 3.734375 -4.03125 C 4.117188 -3.363281 4.65625 -2.835938 5.34375 -2.453125 C 6.039062 -2.066406 6.828125 -1.875 7.703125 -1.875 C 8.691406 -1.875 9.554688 -2.085938 10.296875 -2.515625 Z M 10.296875 -6.4375 "/></g></g></g><g fill="#000000" fill-opacity="1"><g transform="translate(185.902493, 323.99381)"><g><path d="M 1.6875 -12.59375 L 4.03125 -12.59375 L 4.03125 0 L 1.6875 0 Z M 1.6875 -12.59375 "/></g></g></g><g fill="#000000" fill-opacity="1"><g transform="translate(196.502698, 323.99381)"><g><path d="M 12.890625 -12.59375 L 12.890625 0 L 10.96875 0 L 4.015625 -8.53125 L 4.015625 0 L 1.6875 0 L 1.6875 -12.59375 L 3.625 -12.59375 L 10.5625 -4.0625 L 10.5625 -12.59375 Z M 12.890625 -12.59375 "/></g></g></g><g fill="#000000" fill-opacity="1"><g transform="translate(215.939354, 323.99381)"><g><path d="M 11.140625 -1.96875 L 11.140625 0 L 1.6875 0 L 1.6875 -12.59375 L 10.890625 -12.59375 L 10.890625 -10.640625 L 4.03125 -10.640625 L 4.03125 -7.359375 L 10.109375 -7.359375 L 10.109375 -5.4375 L 4.03125 -5.4375 L 4.03125 -1.96875 Z M 11.140625 -1.96875 "/></g></g></g><g fill="#000000" fill-opacity="1"><g transform="translate(232.856451, 323.99381)"><g><path d="M 5.59375 0.1875 C 4.625 0.1875 3.6875 0.0507812 2.78125 -0.21875 C 1.875 -0.5 1.15625 -0.867188 0.625 -1.328125 L 1.4375 -3.15625 C 1.957031 -2.738281 2.59375 -2.398438 3.34375 -2.140625 C 4.09375 -1.890625 4.84375 -1.765625 5.59375 -1.765625 C 6.53125 -1.765625 7.226562 -1.910156 7.6875 -2.203125 C 8.15625 -2.503906 8.390625 -2.90625 8.390625 -3.40625 C 8.390625 -3.757812 8.257812 -4.050781 8 -4.28125 C 7.738281 -4.519531 7.410156 -4.707031 7.015625 -4.84375 C 6.617188 -4.976562 6.082031 -5.128906 5.40625 -5.296875 C 4.4375 -5.523438 3.65625 -5.75 3.0625 -5.96875 C 2.46875 -6.195312 1.957031 -6.554688 1.53125 -7.046875 C 1.113281 -7.535156 0.90625 -8.191406 0.90625 -9.015625 C 0.90625 -9.710938 1.09375 -10.34375 1.46875 -10.90625 C 1.84375 -11.476562 2.410156 -11.929688 3.171875 -12.265625 C 3.929688 -12.609375 4.863281 -12.78125 5.96875 -12.78125 C 6.738281 -12.78125 7.492188 -12.679688 8.234375 -12.484375 C 8.984375 -12.296875 9.628906 -12.019531 10.171875 -11.65625 L 9.4375 -9.84375 C 8.882812 -10.164062 8.304688 -10.410156 7.703125 -10.578125 C 7.097656 -10.742188 6.515625 -10.828125 5.953125 -10.828125 C 5.035156 -10.828125 4.347656 -10.671875 3.890625 -10.359375 C 3.441406 -10.054688 3.21875 -9.644531 3.21875 -9.125 C 3.21875 -8.769531 3.347656 -8.476562 3.609375 -8.25 C 3.867188 -8.019531 4.195312 -7.835938 4.59375 -7.703125 C 4.988281 -7.566406 5.523438 -7.414062 6.203125 -7.25 C 7.140625 -7.039062 7.90625 -6.816406 8.5 -6.578125 C 9.101562 -6.347656 9.617188 -5.988281 10.046875 -5.5 C 10.472656 -5.019531 10.6875 -4.375 10.6875 -3.5625 C 10.6875 -2.863281 10.5 -2.234375 10.125 -1.671875 C 9.75 -1.109375 9.175781 -0.65625 8.40625 -0.3125 C 7.632812 0.0195312 6.695312 0.1875 5.59375 0.1875 Z M 5.59375 0.1875 "/></g></g></g></svg>