<svg xmlns="http://www.w3.org/2000/svg" xmlns:xlink="http://www.w3.org/1999/xlink" width="500" zoomAndPan="magnify" viewBox="0 0 375 374.999991" height="500" preserveAspectRatio="xMidYMid meet" version="1.0"><defs><clipPath id="93ad98276b"><path d="M 6.78125 4.070312 L 359.28125 4.070312 L 359.28125 359.570312 L 6.78125 359.570312 Z M 6.78125 4.070312 " clip-rule="nonzero"/></clipPath></defs><g clip-path="url(#93ad98276b)"><path fill="#ff1616" d="M 293.773438 4.070312 C 284.96875 4.070312 276.507812 5.761719 268.71875 9.148438 L 268.375 9.148438 L 101.074219 82.277344 C 95.996094 84.648438 93.625 90.402344 95.996094 95.820312 C 97.6875 99.542969 101.410156 101.917969 105.472656 101.917969 C 106.828125 101.917969 108.1875 101.574219 109.542969 100.898438 L 232.8125 47.066406 C 230.105469 54.175781 228.75 61.964844 228.75 70.089844 C 228.75 106.65625 258.21875 136.113281 294.117188 136.113281 C 330.015625 136.113281 359.140625 106.65625 359.140625 70.089844 C 359.140625 33.523438 329.671875 4.070312 293.773438 4.070312 Z M 293.773438 24.382812 C 318.496094 24.382812 338.820312 45.035156 338.820312 70.089844 C 338.820312 95.144531 318.496094 115.796875 293.773438 115.796875 C 269.050781 115.796875 248.734375 95.144531 248.734375 70.089844 C 248.734375 45.035156 269.050781 24.382812 293.773438 24.382812 Z M 293.4375 56.210938 C 292.523438 56.210938 291.621094 56.300781 290.726562 56.476562 C 289.832031 56.65625 288.964844 56.917969 288.125 57.265625 C 287.28125 57.617188 286.480469 58.042969 285.722656 58.550781 C 284.964844 59.054688 284.265625 59.632812 283.621094 60.277344 C 282.976562 60.921875 282.398438 61.621094 281.894531 62.378906 C 281.386719 63.136719 280.957031 63.9375 280.609375 64.777344 C 280.261719 65.621094 279.996094 66.488281 279.820312 67.382812 C 279.640625 68.277344 279.550781 69.179688 279.550781 70.089844 C 279.550781 71 279.640625 71.902344 279.820312 72.796875 C 279.996094 73.691406 280.261719 74.558594 280.609375 75.402344 C 280.957031 76.242188 281.386719 77.042969 281.894531 77.800781 C 282.398438 78.558594 282.976562 79.261719 283.621094 79.90625 C 284.265625 80.550781 284.964844 81.125 285.722656 81.628906 C 286.480469 82.136719 287.28125 82.566406 288.125 82.914062 C 288.964844 83.261719 289.832031 83.527344 290.726562 83.703125 C 291.621094 83.882812 292.523438 83.96875 293.4375 83.96875 C 294.347656 83.96875 295.25 83.882812 296.144531 83.703125 C 297.039062 83.527344 297.90625 83.261719 298.75 82.914062 C 299.59375 82.566406 300.390625 82.136719 301.148438 81.628906 C 301.90625 81.125 302.609375 80.550781 303.253906 79.90625 C 303.898438 79.261719 304.472656 78.558594 304.980469 77.800781 C 305.488281 77.042969 305.914062 76.242188 306.261719 75.402344 C 306.613281 74.558594 306.875 73.691406 307.054688 72.796875 C 307.230469 71.902344 307.320312 71 307.320312 70.089844 C 307.320312 69.179688 307.230469 68.277344 307.054688 67.382812 C 306.875 66.488281 306.613281 65.621094 306.261719 64.777344 C 305.914062 63.9375 305.488281 63.136719 304.980469 62.378906 C 304.472656 61.621094 303.898438 60.921875 303.253906 60.277344 C 302.609375 59.632812 301.90625 59.054688 301.148438 58.550781 C 300.390625 58.042969 299.59375 57.617188 298.75 57.265625 C 297.90625 56.917969 297.039062 56.65625 296.144531 56.476562 C 295.25 56.300781 294.347656 56.210938 293.4375 56.210938 Z M 58.742188 107.332031 C 30.292969 107.332031 6.921875 130.695312 6.921875 159.472656 C 6.921875 172.339844 11.660156 184.191406 19.449219 193.332031 C 19.789062 193.671875 19.792969 194.007812 20.132812 194.007812 L 85.152344 263.074219 C 87.1875 265.105469 89.898438 266.125 92.609375 266.125 C 94.980469 266.125 97.6875 265.105469 99.71875 263.414062 C 103.785156 259.6875 104.121094 253.257812 100.058594 249.195312 L 64.160156 211.273438 C 89.898438 208.5625 110.21875 186.222656 110.21875 159.472656 C 110.21875 130.695312 87.191406 107.332031 58.742188 107.332031 Z M 58.742188 127.648438 C 76.015625 127.648438 89.898438 141.867188 89.898438 159.472656 C 89.898438 177.078125 76.015625 191.300781 58.742188 191.300781 C 50.273438 191.300781 42.484375 187.910156 36.726562 182.15625 L 36.046875 181.480469 C 30.628906 175.726562 27.242188 167.9375 27.242188 159.472656 C 27.242188 141.867188 41.46875 127.648438 58.742188 127.648438 Z M 334.765625 137.75 C 330.089844 138.085938 325.867188 141.527344 325.273438 146.269531 L 316.804688 202.132812 C 299.195312 167.261719 262.957031 143.558594 221.640625 143.558594 C 162.710938 143.894531 114.960938 191.972656 114.960938 251.5625 C 114.960938 311.152344 163.050781 359.570312 221.976562 359.570312 C 273.457031 359.570312 316.808594 322.328125 326.628906 272.558594 L 326.628906 271.878906 C 326.96875 269.507812 327.640625 266.800781 327.640625 264.429688 L 345.257812 149.316406 C 346.273438 143.898438 342.207031 138.480469 336.789062 137.804688 C 336.113281 137.71875 335.433594 137.703125 334.765625 137.75 Z M 58.742188 149.316406 C 58.074219 149.316406 57.414062 149.382812 56.757812 149.511719 C 56.105469 149.640625 55.46875 149.835938 54.851562 150.089844 C 54.238281 150.34375 53.652344 150.660156 53.097656 151.027344 C 52.542969 151.398438 52.027344 151.820312 51.558594 152.292969 C 51.085938 152.765625 50.664062 153.277344 50.292969 153.832031 C 49.921875 154.386719 49.609375 154.972656 49.355469 155.585938 C 49.097656 156.203125 48.90625 156.839844 48.777344 157.492188 C 48.648438 158.148438 48.582031 158.808594 48.582031 159.472656 C 48.582031 160.140625 48.648438 160.800781 48.777344 161.457031 C 48.90625 162.109375 49.097656 162.746094 49.355469 163.359375 C 49.609375 163.976562 49.921875 164.5625 50.292969 165.117188 C 50.664062 165.671875 51.085938 166.183594 51.558594 166.65625 C 52.027344 167.128906 52.542969 167.550781 53.097656 167.917969 C 53.652344 168.289062 54.238281 168.601562 54.851562 168.859375 C 55.46875 169.113281 56.105469 169.304688 56.757812 169.4375 C 57.414062 169.566406 58.074219 169.632812 58.742188 169.632812 C 59.410156 169.632812 60.070312 169.566406 60.722656 169.4375 C 61.378906 169.304688 62.011719 169.113281 62.628906 168.859375 C 63.246094 168.601562 63.832031 168.289062 64.386719 167.917969 C 64.941406 167.550781 65.453125 167.128906 65.925781 166.65625 C 66.398438 166.183594 66.820312 165.671875 67.1875 165.117188 C 67.558594 164.5625 67.871094 163.976562 68.128906 163.359375 C 68.382812 162.746094 68.578125 162.109375 68.707031 161.457031 C 68.835938 160.800781 68.902344 160.140625 68.902344 159.472656 C 68.902344 158.808594 68.835938 158.148438 68.707031 157.492188 C 68.578125 156.839844 68.382812 156.203125 68.128906 155.585938 C 67.871094 154.972656 67.558594 154.386719 67.1875 153.832031 C 66.820312 153.277344 66.398438 152.765625 65.925781 152.292969 C 65.453125 151.820312 64.941406 151.398438 64.386719 151.027344 C 63.832031 150.660156 63.246094 150.34375 62.628906 150.089844 C 62.011719 149.835938 61.378906 149.640625 60.722656 149.511719 C 60.070312 149.382812 59.410156 149.316406 58.742188 149.316406 Z M 221.640625 163.871094 C 269.394531 163.871094 308.339844 203.484375 308.339844 251.5625 C 308.339844 254.949219 308.003906 258.335938 307.664062 261.382812 L 306.644531 268.828125 C 298.855469 308.78125 263.636719 339.253906 221.640625 339.253906 C 173.886719 339.253906 134.941406 299.980469 134.941406 251.5625 C 134.941406 203.148438 173.886719 163.871094 221.640625 163.871094 Z M 222.316406 185.878906 C 216.558594 185.878906 212.15625 190.28125 212.15625 196.035156 L 212.15625 215.339844 C 209.109375 216.015625 206.398438 217.371094 203.6875 218.722656 L 190.480469 205.179688 C 186.414062 201.117188 179.984375 201.117188 176.257812 205.179688 C 172.195312 209.246094 172.195312 215.675781 176.257812 219.398438 L 189.804688 232.941406 C 188.449219 235.648438 187.09375 238.359375 186.417969 241.40625 L 167.453125 241.40625 C 161.695312 241.40625 157.292969 245.808594 157.292969 251.5625 C 157.292969 257.320312 161.695312 261.71875 167.453125 261.71875 L 186.417969 261.71875 C 187.09375 264.765625 188.449219 267.476562 189.804688 270.183594 L 176.257812 283.726562 C 172.195312 287.789062 172.195312 294.226562 176.257812 297.953125 C 178.289062 299.984375 180.660156 300.992188 183.367188 300.992188 C 186.078125 300.992188 188.449219 299.984375 190.480469 297.953125 L 203.6875 284.410156 C 206.398438 285.761719 209.109375 287.117188 212.15625 287.792969 L 212.15625 307.089844 C 212.15625 312.847656 216.558594 317.246094 222.316406 317.246094 C 228.074219 317.246094 232.476562 312.847656 232.476562 307.089844 L 232.476562 287.792969 C 235.523438 287.117188 238.234375 285.761719 240.941406 284.410156 L 254.152344 297.953125 C 256.183594 299.984375 258.890625 300.992188 261.261719 300.992188 C 263.972656 300.992188 266.339844 299.984375 268.375 297.953125 C 272.4375 293.886719 272.4375 287.453125 268.375 283.726562 L 254.828125 270.183594 C 256.179688 267.476562 257.535156 264.765625 258.214844 261.71875 L 277.183594 261.71875 C 282.941406 261.71875 287.34375 257.320312 287.34375 251.5625 C 287.34375 245.808594 282.941406 241.40625 277.183594 241.40625 L 258.214844 241.40625 C 257.535156 238.359375 256.179688 235.648438 254.828125 232.941406 L 268.375 219.398438 C 272.4375 215.335938 272.4375 208.90625 268.375 205.179688 C 264.308594 201.117188 257.878906 201.117188 254.152344 205.179688 L 240.941406 218.722656 C 238.234375 217.371094 235.523438 216.015625 232.476562 215.339844 L 232.476562 196.035156 C 232.476562 190.28125 228.074219 185.878906 222.316406 185.878906 Z M 221.640625 234.296875 C 231.125 234.296875 239.25 242.421875 239.25 251.898438 C 239.25 261.378906 231.460938 269.511719 221.640625 269.511719 C 212.160156 269.511719 204.027344 261.378906 204.027344 251.898438 C 204.027344 242.421875 211.820312 234.296875 221.640625 234.296875 Z M 221.640625 234.296875 " fill-opacity="1" fill-rule="nonzero"/></g></svg>