<svg xmlns="http://www.w3.org/2000/svg" xmlns:xlink="http://www.w3.org/1999/xlink" width="500" zoomAndPan="magnify" viewBox="0 0 375 374.999991" height="500" preserveAspectRatio="xMidYMid meet" version="1.0"><defs><clipPath id="bc2144b8a8"><path d="M 7.316406 6.742188 L 366.566406 6.742188 L 366.566406 368.992188 L 7.316406 368.992188 Z M 7.316406 6.742188 " clip-rule="nonzero"/></clipPath></defs><g clip-path="url(#bc2144b8a8)"><path fill="#7ed321" d="M 299.6875 6.742188 C 290.71875 6.742188 282.097656 8.46875 274.164062 11.917969 L 273.8125 11.917969 L 103.375 86.441406 C 98.203125 88.855469 95.785156 94.722656 98.203125 100.242188 C 99.925781 104.035156 103.71875 106.453125 107.859375 106.453125 C 109.238281 106.453125 110.621094 106.105469 112.003906 105.417969 L 237.585938 50.558594 C 234.824219 57.804688 233.449219 65.742188 233.449219 74.023438 C 233.449219 111.285156 263.46875 141.300781 300.039062 141.300781 C 336.613281 141.300781 366.28125 111.285156 366.28125 74.023438 C 366.28125 36.757812 336.261719 6.742188 299.6875 6.742188 Z M 299.6875 27.445312 C 324.875 27.445312 345.578125 48.488281 345.578125 74.023438 C 345.578125 99.554688 324.875 120.597656 299.6875 120.597656 C 274.503906 120.597656 253.804688 99.554688 253.804688 74.023438 C 253.804688 48.488281 274.503906 27.445312 299.6875 27.445312 Z M 299.34375 59.875 C 298.417969 59.878906 297.496094 59.96875 296.585938 60.148438 C 295.675781 60.332031 294.789062 60.597656 293.933594 60.953125 C 293.074219 61.308594 292.257812 61.746094 291.488281 62.261719 C 290.714844 62.777344 290 63.363281 289.34375 64.019531 C 288.6875 64.675781 288.101562 65.390625 287.585938 66.164062 C 287.070312 66.9375 286.632812 67.75 286.277344 68.609375 C 285.921875 69.46875 285.652344 70.351562 285.472656 71.261719 C 285.292969 72.171875 285.199219 73.09375 285.199219 74.023438 C 285.199219 74.949219 285.292969 75.871094 285.472656 76.78125 C 285.652344 77.691406 285.921875 78.574219 286.277344 79.433594 C 286.632812 80.292969 287.070312 81.105469 287.585938 81.878906 C 288.101562 82.652344 288.6875 83.367188 289.34375 84.023438 C 290 84.679688 290.714844 85.265625 291.488281 85.78125 C 292.257812 86.296875 293.074219 86.734375 293.933594 87.089844 C 294.789062 87.445312 295.675781 87.710938 296.585938 87.894531 C 297.496094 88.074219 298.417969 88.164062 299.34375 88.167969 C 300.273438 88.164062 301.195312 88.074219 302.105469 87.894531 C 303.015625 87.710938 303.898438 87.445312 304.757812 87.089844 C 305.617188 86.734375 306.429688 86.296875 307.203125 85.78125 C 307.976562 85.265625 308.691406 84.679688 309.347656 84.023438 C 310.003906 83.367188 310.589844 82.652344 311.105469 81.878906 C 311.621094 81.105469 312.058594 80.292969 312.414062 79.433594 C 312.769531 78.574219 313.035156 77.691406 313.21875 76.78125 C 313.398438 75.871094 313.488281 74.949219 313.488281 74.023438 C 313.488281 73.09375 313.398438 72.171875 313.21875 71.261719 C 313.035156 70.351562 312.769531 69.46875 312.414062 68.609375 C 312.058594 67.75 311.621094 66.9375 311.105469 66.164062 C 310.589844 65.390625 310.003906 64.675781 309.347656 64.019531 C 308.691406 63.363281 307.976562 62.777344 307.203125 62.261719 C 306.429688 61.746094 305.617188 61.308594 304.757812 60.953125 C 303.898438 60.597656 303.015625 60.332031 302.105469 60.148438 C 301.195312 59.96875 300.273438 59.878906 299.34375 59.875 Z M 60.25 111.972656 C 31.265625 111.972656 7.457031 135.78125 7.457031 165.109375 C 7.457031 178.21875 12.285156 190.296875 20.222656 199.609375 C 20.566406 199.957031 20.570312 200.296875 20.914062 200.296875 L 87.15625 270.683594 C 89.226562 272.753906 91.992188 273.789062 94.75 273.789062 C 97.167969 273.789062 99.925781 272.753906 101.996094 271.027344 C 106.136719 267.234375 106.480469 260.679688 102.339844 256.539062 L 65.769531 217.894531 C 91.988281 215.132812 112.691406 192.367188 112.691406 165.109375 C 112.691406 135.78125 89.230469 111.972656 60.25 111.972656 Z M 60.25 132.675781 C 77.84375 132.675781 91.988281 147.167969 91.988281 165.109375 C 91.988281 183.050781 77.84375 197.542969 60.25 197.542969 C 51.625 197.542969 43.6875 194.085938 37.824219 188.222656 L 37.128906 187.535156 C 31.609375 181.667969 28.160156 173.734375 28.160156 165.109375 C 28.160156 147.167969 42.652344 132.675781 60.25 132.675781 Z M 341.449219 142.972656 C 336.683594 143.3125 332.382812 146.820312 331.777344 151.652344 L 323.152344 208.582031 C 305.210938 173.042969 268.296875 148.886719 226.203125 148.886719 C 166.167969 149.234375 117.519531 198.226562 117.519531 258.953125 C 117.519531 319.675781 166.511719 369.015625 226.546875 369.015625 C 278.992188 369.015625 323.15625 331.066406 333.160156 280.347656 L 333.160156 279.652344 C 333.503906 277.238281 334.191406 274.480469 334.191406 272.066406 L 352.136719 154.757812 C 353.171875 149.238281 349.03125 143.714844 343.511719 143.027344 C 342.820312 142.941406 342.128906 142.921875 341.449219 142.972656 Z M 60.25 154.757812 C 59.570312 154.757812 58.894531 154.824219 58.230469 154.957031 C 57.5625 155.089844 56.914062 155.285156 56.289062 155.546875 C 55.660156 155.804688 55.0625 156.125 54.5 156.503906 C 53.933594 156.878906 53.410156 157.308594 52.929688 157.789062 C 52.449219 158.269531 52.019531 158.792969 51.640625 159.359375 C 51.265625 159.921875 50.945312 160.519531 50.6875 161.148438 C 50.425781 161.777344 50.230469 162.421875 50.097656 163.089844 C 49.964844 163.757812 49.898438 164.429688 49.898438 165.109375 C 49.898438 165.789062 49.964844 166.460938 50.097656 167.128906 C 50.230469 167.792969 50.425781 168.441406 50.6875 169.070312 C 50.945312 169.699219 51.265625 170.292969 51.640625 170.859375 C 52.019531 171.425781 52.449219 171.945312 52.929688 172.425781 C 53.410156 172.910156 53.933594 173.335938 54.5 173.714844 C 55.0625 174.09375 55.660156 174.410156 56.289062 174.671875 C 56.914062 174.929688 57.5625 175.128906 58.230469 175.261719 C 58.894531 175.394531 59.570312 175.460938 60.25 175.460938 C 60.929688 175.460938 61.601562 175.394531 62.269531 175.261719 C 62.933594 175.128906 63.582031 174.929688 64.210938 174.671875 C 64.835938 174.410156 65.433594 174.09375 66 173.714844 C 66.5625 173.335938 67.085938 172.910156 67.566406 172.425781 C 68.046875 171.945312 68.476562 171.425781 68.855469 170.859375 C 69.234375 170.292969 69.550781 169.699219 69.8125 169.070312 C 70.070312 168.441406 70.269531 167.792969 70.402344 167.128906 C 70.53125 166.460938 70.597656 165.789062 70.597656 165.109375 C 70.597656 164.429688 70.53125 163.757812 70.402344 163.089844 C 70.269531 162.421875 70.070312 161.777344 69.8125 161.148438 C 69.550781 160.519531 69.234375 159.921875 68.855469 159.359375 C 68.476562 158.792969 68.046875 158.269531 67.566406 157.789062 C 67.085938 157.308594 66.5625 156.878906 66 156.503906 C 65.433594 156.125 64.835938 155.804688 64.210938 155.546875 C 63.582031 155.285156 62.933594 155.089844 62.269531 154.957031 C 61.601562 154.824219 60.929688 154.757812 60.25 154.757812 Z M 226.203125 169.589844 C 274.851562 169.589844 314.527344 209.957031 314.527344 258.953125 C 314.527344 262.402344 314.183594 265.855469 313.839844 268.960938 L 312.800781 276.546875 C 304.867188 317.257812 268.984375 348.3125 226.203125 348.3125 C 177.554688 348.3125 137.878906 308.289062 137.878906 258.953125 C 137.878906 209.613281 177.554688 169.589844 226.203125 169.589844 Z M 226.890625 192.015625 C 221.023438 192.015625 216.539062 196.5 216.539062 202.367188 L 216.539062 222.039062 C 213.433594 222.726562 210.675781 224.109375 207.914062 225.488281 L 194.457031 211.6875 C 190.316406 207.546875 183.765625 207.546875 179.96875 211.6875 C 175.828125 215.828125 175.828125 222.378906 179.96875 226.175781 L 193.769531 239.976562 C 192.390625 242.734375 191.007812 245.496094 190.320312 248.601562 L 171 248.601562 C 165.132812 248.601562 160.648438 253.085938 160.648438 258.953125 C 160.648438 264.816406 165.132812 269.304688 171 269.304688 L 190.320312 269.304688 C 191.007812 272.40625 192.390625 275.167969 193.769531 277.929688 L 179.96875 291.730469 C 175.828125 295.871094 175.828125 302.429688 179.96875 306.222656 C 182.039062 308.292969 184.453125 309.324219 187.214844 309.324219 C 189.972656 309.324219 192.386719 308.292969 194.457031 306.222656 L 207.914062 292.421875 C 210.675781 293.804688 213.433594 295.183594 216.539062 295.875 L 216.539062 315.535156 C 216.539062 321.402344 221.023438 325.886719 226.890625 325.886719 C 232.757812 325.886719 237.242188 321.402344 237.242188 315.535156 L 237.242188 295.875 C 240.347656 295.183594 243.105469 293.804688 245.867188 292.421875 L 259.324219 306.222656 C 261.394531 308.292969 264.152344 309.324219 266.566406 309.324219 C 269.328125 309.324219 271.742188 308.292969 273.8125 306.222656 C 277.953125 302.082031 277.953125 295.523438 273.8125 291.730469 L 260.011719 277.929688 C 261.390625 275.167969 262.773438 272.40625 263.460938 269.304688 L 282.789062 269.304688 C 288.652344 269.304688 293.140625 264.816406 293.140625 258.953125 C 293.140625 253.085938 288.652344 248.601562 282.789062 248.601562 L 263.460938 248.601562 C 262.773438 245.496094 261.390625 242.734375 260.011719 239.976562 L 273.8125 226.175781 C 277.953125 222.035156 277.953125 215.480469 273.8125 211.6875 C 269.671875 207.546875 263.121094 207.546875 259.324219 211.6875 L 245.867188 225.488281 C 243.105469 224.109375 240.347656 222.726562 237.242188 222.039062 L 237.242188 202.367188 C 237.242188 196.5 232.757812 192.015625 226.890625 192.015625 Z M 226.203125 241.355469 C 235.863281 241.355469 244.140625 249.636719 244.140625 259.296875 C 244.140625 268.957031 236.207031 277.242188 226.203125 277.242188 C 216.542969 277.242188 208.257812 268.957031 208.257812 259.296875 C 208.257812 249.636719 216.199219 241.355469 226.203125 241.355469 Z M 226.203125 241.355469 " fill-opacity="1" fill-rule="nonzero"/></g></svg>