<svg xmlns="http://www.w3.org/2000/svg" xmlns:xlink="http://www.w3.org/1999/xlink" width="204" zoomAndPan="magnify" viewBox="0 0 153 153.000002" height="204" preserveAspectRatio="xMidYMid meet" version="1.0"><defs><clipPath id="19b21f3540"><path d="M 0.496094 0.0859375 L 152.503906 0.0859375 L 152.503906 152 L 0.496094 152 Z M 0.496094 0.0859375 " clip-rule="nonzero"/></clipPath><clipPath id="85290812c9"><path d="M 48.421875 31.074219 L 101.59375 31.074219 L 101.59375 84.246094 L 48.421875 84.246094 Z M 48.421875 31.074219 " clip-rule="nonzero"/></clipPath><clipPath id="a66a00c4f5"><path d="M 75.007812 31.074219 C 60.328125 31.074219 48.421875 42.976562 48.421875 57.660156 C 48.421875 72.34375 60.328125 84.246094 75.007812 84.246094 C 89.691406 84.246094 101.59375 72.34375 101.59375 57.660156 C 101.59375 42.976562 89.691406 31.074219 75.007812 31.074219 Z M 75.007812 31.074219 " clip-rule="nonzero"/></clipPath></defs><g clip-path="url(#19b21f3540)"><path fill="#5e94ff" d="M 76.109375 -0.304688 C 34.136719 -0.304688 0.105469 33.726562 0.105469 75.699219 C 0.105469 117.675781 34.136719 151.703125 76.109375 151.703125 C 118.085938 151.703125 152.113281 117.675781 152.113281 75.699219 C 152.113281 33.726562 118.085938 -0.304688 76.109375 -0.304688 Z M 76.109375 -0.304688 " fill-opacity="1" fill-rule="evenodd"/></g><path fill="#eceff1" d="M 76.109375 30.878906 C 59.964844 30.878906 46.878906 43.964844 46.878906 60.109375 C 46.878906 76.253906 59.964844 89.34375 76.109375 89.34375 C 92.253906 89.34375 105.34375 76.253906 105.34375 60.109375 C 105.34375 43.964844 92.253906 30.878906 76.109375 30.878906 Z M 76.109375 30.878906 " fill-opacity="1" fill-rule="evenodd"/><path fill="#eceff1" d="M 129.769531 129.523438 L 128.402344 127.28125 C 117.957031 109.269531 98.453125 97.136719 76.109375 97.136719 C 53.742188 97.136719 34.21875 109.296875 23.785156 127.339844 L 23.726562 127.4375 L 22.527344 129.605469 C 36.269531 143.261719 55.203125 151.703125 76.109375 151.703125 C 97.054688 151.703125 116.023438 143.230469 129.769531 129.523438 Z M 129.769531 129.523438 " fill-opacity="1" fill-rule="evenodd"/><g clip-path="url(#85290812c9)"><g clip-path="url(#a66a00c4f5)"><path fill="#eceff1" d="M 48.421875 31.074219 L 101.59375 31.074219 L 101.59375 84.246094 L 48.421875 84.246094 Z M 48.421875 31.074219 " fill-opacity="1" fill-rule="nonzero"/></g></g></svg>